%TF.GenerationSoftware,KiCad,Pcbnew,9.0.0*%
%TF.CreationDate,2025-04-28T15:11:58+09:00*%
%TF.ProjectId,1Keyboard,314b6579-626f-4617-9264-2e6b69636164,rev?*%
%TF.SameCoordinates,Original*%
%TF.FileFunction,Legend,Top*%
%TF.FilePolarity,Positive*%
%FSLAX46Y46*%
G04 Gerber Fmt 4.6, Leading zero omitted, Abs format (unit mm)*
G04 Created by KiCad (PCBNEW 9.0.0) date 2025-04-28 15:11:58*
%MOMM*%
%LPD*%
G01*
G04 APERTURE LIST*
%ADD10C,0.150000*%
%ADD11C,0.254000*%
%ADD12C,0.125000*%
%ADD13C,0.120000*%
%ADD14C,0.127000*%
%ADD15C,0.200000*%
%ADD16C,0.100000*%
G04 APERTURE END LIST*
D10*
X144024819Y-86272666D02*
X143548628Y-86605999D01*
X144024819Y-86844094D02*
X143024819Y-86844094D01*
X143024819Y-86844094D02*
X143024819Y-86463142D01*
X143024819Y-86463142D02*
X143072438Y-86367904D01*
X143072438Y-86367904D02*
X143120057Y-86320285D01*
X143120057Y-86320285D02*
X143215295Y-86272666D01*
X143215295Y-86272666D02*
X143358152Y-86272666D01*
X143358152Y-86272666D02*
X143453390Y-86320285D01*
X143453390Y-86320285D02*
X143501009Y-86367904D01*
X143501009Y-86367904D02*
X143548628Y-86463142D01*
X143548628Y-86463142D02*
X143548628Y-86844094D01*
X144024819Y-85320285D02*
X144024819Y-85891713D01*
X144024819Y-85605999D02*
X143024819Y-85605999D01*
X143024819Y-85605999D02*
X143167676Y-85701237D01*
X143167676Y-85701237D02*
X143262914Y-85796475D01*
X143262914Y-85796475D02*
X143310533Y-85891713D01*
X142964819Y-89705952D02*
X142964819Y-90182142D01*
X142964819Y-90182142D02*
X143441009Y-90229761D01*
X143441009Y-90229761D02*
X143393390Y-90182142D01*
X143393390Y-90182142D02*
X143345771Y-90086904D01*
X143345771Y-90086904D02*
X143345771Y-89848809D01*
X143345771Y-89848809D02*
X143393390Y-89753571D01*
X143393390Y-89753571D02*
X143441009Y-89705952D01*
X143441009Y-89705952D02*
X143536247Y-89658333D01*
X143536247Y-89658333D02*
X143774342Y-89658333D01*
X143774342Y-89658333D02*
X143869580Y-89705952D01*
X143869580Y-89705952D02*
X143917200Y-89753571D01*
X143917200Y-89753571D02*
X143964819Y-89848809D01*
X143964819Y-89848809D02*
X143964819Y-90086904D01*
X143964819Y-90086904D02*
X143917200Y-90182142D01*
X143917200Y-90182142D02*
X143869580Y-90229761D01*
X143869580Y-89229761D02*
X143917200Y-89182142D01*
X143917200Y-89182142D02*
X143964819Y-89229761D01*
X143964819Y-89229761D02*
X143917200Y-89277380D01*
X143917200Y-89277380D02*
X143869580Y-89229761D01*
X143869580Y-89229761D02*
X143964819Y-89229761D01*
X143964819Y-88229762D02*
X143964819Y-88801190D01*
X143964819Y-88515476D02*
X142964819Y-88515476D01*
X142964819Y-88515476D02*
X143107676Y-88610714D01*
X143107676Y-88610714D02*
X143202914Y-88705952D01*
X143202914Y-88705952D02*
X143250533Y-88801190D01*
X143964819Y-87801190D02*
X142964819Y-87801190D01*
X143583866Y-87705952D02*
X143964819Y-87420238D01*
X143298152Y-87420238D02*
X143679104Y-87801190D01*
X130810095Y-108674819D02*
X130810095Y-109484342D01*
X130810095Y-109484342D02*
X130857714Y-109579580D01*
X130857714Y-109579580D02*
X130905333Y-109627200D01*
X130905333Y-109627200D02*
X131000571Y-109674819D01*
X131000571Y-109674819D02*
X131191047Y-109674819D01*
X131191047Y-109674819D02*
X131286285Y-109627200D01*
X131286285Y-109627200D02*
X131333904Y-109579580D01*
X131333904Y-109579580D02*
X131381523Y-109484342D01*
X131381523Y-109484342D02*
X131381523Y-108674819D01*
X132381523Y-109674819D02*
X131810095Y-109674819D01*
X132095809Y-109674819D02*
X132095809Y-108674819D01*
X132095809Y-108674819D02*
X132000571Y-108817676D01*
X132000571Y-108817676D02*
X131905333Y-108912914D01*
X131905333Y-108912914D02*
X131810095Y-108960533D01*
X148187580Y-104052666D02*
X148235200Y-104100285D01*
X148235200Y-104100285D02*
X148282819Y-104243142D01*
X148282819Y-104243142D02*
X148282819Y-104338380D01*
X148282819Y-104338380D02*
X148235200Y-104481237D01*
X148235200Y-104481237D02*
X148139961Y-104576475D01*
X148139961Y-104576475D02*
X148044723Y-104624094D01*
X148044723Y-104624094D02*
X147854247Y-104671713D01*
X147854247Y-104671713D02*
X147711390Y-104671713D01*
X147711390Y-104671713D02*
X147520914Y-104624094D01*
X147520914Y-104624094D02*
X147425676Y-104576475D01*
X147425676Y-104576475D02*
X147330438Y-104481237D01*
X147330438Y-104481237D02*
X147282819Y-104338380D01*
X147282819Y-104338380D02*
X147282819Y-104243142D01*
X147282819Y-104243142D02*
X147330438Y-104100285D01*
X147330438Y-104100285D02*
X147378057Y-104052666D01*
X147378057Y-103671713D02*
X147330438Y-103624094D01*
X147330438Y-103624094D02*
X147282819Y-103528856D01*
X147282819Y-103528856D02*
X147282819Y-103290761D01*
X147282819Y-103290761D02*
X147330438Y-103195523D01*
X147330438Y-103195523D02*
X147378057Y-103147904D01*
X147378057Y-103147904D02*
X147473295Y-103100285D01*
X147473295Y-103100285D02*
X147568533Y-103100285D01*
X147568533Y-103100285D02*
X147711390Y-103147904D01*
X147711390Y-103147904D02*
X148282819Y-103719332D01*
X148282819Y-103719332D02*
X148282819Y-103100285D01*
X146012819Y-104846285D02*
X146012819Y-104751047D01*
X146012819Y-104751047D02*
X146060438Y-104655809D01*
X146060438Y-104655809D02*
X146108057Y-104608190D01*
X146108057Y-104608190D02*
X146203295Y-104560571D01*
X146203295Y-104560571D02*
X146393771Y-104512952D01*
X146393771Y-104512952D02*
X146631866Y-104512952D01*
X146631866Y-104512952D02*
X146822342Y-104560571D01*
X146822342Y-104560571D02*
X146917580Y-104608190D01*
X146917580Y-104608190D02*
X146965200Y-104655809D01*
X146965200Y-104655809D02*
X147012819Y-104751047D01*
X147012819Y-104751047D02*
X147012819Y-104846285D01*
X147012819Y-104846285D02*
X146965200Y-104941523D01*
X146965200Y-104941523D02*
X146917580Y-104989142D01*
X146917580Y-104989142D02*
X146822342Y-105036761D01*
X146822342Y-105036761D02*
X146631866Y-105084380D01*
X146631866Y-105084380D02*
X146393771Y-105084380D01*
X146393771Y-105084380D02*
X146203295Y-105036761D01*
X146203295Y-105036761D02*
X146108057Y-104989142D01*
X146108057Y-104989142D02*
X146060438Y-104941523D01*
X146060438Y-104941523D02*
X146012819Y-104846285D01*
X146917580Y-104084380D02*
X146965200Y-104036761D01*
X146965200Y-104036761D02*
X147012819Y-104084380D01*
X147012819Y-104084380D02*
X146965200Y-104131999D01*
X146965200Y-104131999D02*
X146917580Y-104084380D01*
X146917580Y-104084380D02*
X147012819Y-104084380D01*
X147012819Y-103084381D02*
X147012819Y-103655809D01*
X147012819Y-103370095D02*
X146012819Y-103370095D01*
X146012819Y-103370095D02*
X146155676Y-103465333D01*
X146155676Y-103465333D02*
X146250914Y-103560571D01*
X146250914Y-103560571D02*
X146298533Y-103655809D01*
X146346152Y-102227238D02*
X147012819Y-102227238D01*
X146346152Y-102655809D02*
X146869961Y-102655809D01*
X146869961Y-102655809D02*
X146965200Y-102608190D01*
X146965200Y-102608190D02*
X147012819Y-102512952D01*
X147012819Y-102512952D02*
X147012819Y-102370095D01*
X147012819Y-102370095D02*
X146965200Y-102274857D01*
X146965200Y-102274857D02*
X146917580Y-102227238D01*
X128629580Y-107166666D02*
X128677200Y-107214285D01*
X128677200Y-107214285D02*
X128724819Y-107357142D01*
X128724819Y-107357142D02*
X128724819Y-107452380D01*
X128724819Y-107452380D02*
X128677200Y-107595237D01*
X128677200Y-107595237D02*
X128581961Y-107690475D01*
X128581961Y-107690475D02*
X128486723Y-107738094D01*
X128486723Y-107738094D02*
X128296247Y-107785713D01*
X128296247Y-107785713D02*
X128153390Y-107785713D01*
X128153390Y-107785713D02*
X127962914Y-107738094D01*
X127962914Y-107738094D02*
X127867676Y-107690475D01*
X127867676Y-107690475D02*
X127772438Y-107595237D01*
X127772438Y-107595237D02*
X127724819Y-107452380D01*
X127724819Y-107452380D02*
X127724819Y-107357142D01*
X127724819Y-107357142D02*
X127772438Y-107214285D01*
X127772438Y-107214285D02*
X127820057Y-107166666D01*
X127724819Y-106833332D02*
X127724819Y-106214285D01*
X127724819Y-106214285D02*
X128105771Y-106547618D01*
X128105771Y-106547618D02*
X128105771Y-106404761D01*
X128105771Y-106404761D02*
X128153390Y-106309523D01*
X128153390Y-106309523D02*
X128201009Y-106261904D01*
X128201009Y-106261904D02*
X128296247Y-106214285D01*
X128296247Y-106214285D02*
X128534342Y-106214285D01*
X128534342Y-106214285D02*
X128629580Y-106261904D01*
X128629580Y-106261904D02*
X128677200Y-106309523D01*
X128677200Y-106309523D02*
X128724819Y-106404761D01*
X128724819Y-106404761D02*
X128724819Y-106690475D01*
X128724819Y-106690475D02*
X128677200Y-106785713D01*
X128677200Y-106785713D02*
X128629580Y-106833332D01*
X129024819Y-108214285D02*
X129024819Y-108119047D01*
X129024819Y-108119047D02*
X129072438Y-108023809D01*
X129072438Y-108023809D02*
X129120057Y-107976190D01*
X129120057Y-107976190D02*
X129215295Y-107928571D01*
X129215295Y-107928571D02*
X129405771Y-107880952D01*
X129405771Y-107880952D02*
X129643866Y-107880952D01*
X129643866Y-107880952D02*
X129834342Y-107928571D01*
X129834342Y-107928571D02*
X129929580Y-107976190D01*
X129929580Y-107976190D02*
X129977200Y-108023809D01*
X129977200Y-108023809D02*
X130024819Y-108119047D01*
X130024819Y-108119047D02*
X130024819Y-108214285D01*
X130024819Y-108214285D02*
X129977200Y-108309523D01*
X129977200Y-108309523D02*
X129929580Y-108357142D01*
X129929580Y-108357142D02*
X129834342Y-108404761D01*
X129834342Y-108404761D02*
X129643866Y-108452380D01*
X129643866Y-108452380D02*
X129405771Y-108452380D01*
X129405771Y-108452380D02*
X129215295Y-108404761D01*
X129215295Y-108404761D02*
X129120057Y-108357142D01*
X129120057Y-108357142D02*
X129072438Y-108309523D01*
X129072438Y-108309523D02*
X129024819Y-108214285D01*
X129929580Y-107452380D02*
X129977200Y-107404761D01*
X129977200Y-107404761D02*
X130024819Y-107452380D01*
X130024819Y-107452380D02*
X129977200Y-107499999D01*
X129977200Y-107499999D02*
X129929580Y-107452380D01*
X129929580Y-107452380D02*
X130024819Y-107452380D01*
X130024819Y-106452381D02*
X130024819Y-107023809D01*
X130024819Y-106738095D02*
X129024819Y-106738095D01*
X129024819Y-106738095D02*
X129167676Y-106833333D01*
X129167676Y-106833333D02*
X129262914Y-106928571D01*
X129262914Y-106928571D02*
X129310533Y-107023809D01*
X129358152Y-105595238D02*
X130024819Y-105595238D01*
X129358152Y-106023809D02*
X129881961Y-106023809D01*
X129881961Y-106023809D02*
X129977200Y-105976190D01*
X129977200Y-105976190D02*
X130024819Y-105880952D01*
X130024819Y-105880952D02*
X130024819Y-105738095D01*
X130024819Y-105738095D02*
X129977200Y-105642857D01*
X129977200Y-105642857D02*
X129929580Y-105595238D01*
X128724819Y-104125230D02*
X128248628Y-104458563D01*
X128724819Y-104696658D02*
X127724819Y-104696658D01*
X127724819Y-104696658D02*
X127724819Y-104315706D01*
X127724819Y-104315706D02*
X127772438Y-104220468D01*
X127772438Y-104220468D02*
X127820057Y-104172849D01*
X127820057Y-104172849D02*
X127915295Y-104125230D01*
X127915295Y-104125230D02*
X128058152Y-104125230D01*
X128058152Y-104125230D02*
X128153390Y-104172849D01*
X128153390Y-104172849D02*
X128201009Y-104220468D01*
X128201009Y-104220468D02*
X128248628Y-104315706D01*
X128248628Y-104315706D02*
X128248628Y-104696658D01*
X127724819Y-103268087D02*
X127724819Y-103458563D01*
X127724819Y-103458563D02*
X127772438Y-103553801D01*
X127772438Y-103553801D02*
X127820057Y-103601420D01*
X127820057Y-103601420D02*
X127962914Y-103696658D01*
X127962914Y-103696658D02*
X128153390Y-103744277D01*
X128153390Y-103744277D02*
X128534342Y-103744277D01*
X128534342Y-103744277D02*
X128629580Y-103696658D01*
X128629580Y-103696658D02*
X128677200Y-103649039D01*
X128677200Y-103649039D02*
X128724819Y-103553801D01*
X128724819Y-103553801D02*
X128724819Y-103363325D01*
X128724819Y-103363325D02*
X128677200Y-103268087D01*
X128677200Y-103268087D02*
X128629580Y-103220468D01*
X128629580Y-103220468D02*
X128534342Y-103172849D01*
X128534342Y-103172849D02*
X128296247Y-103172849D01*
X128296247Y-103172849D02*
X128201009Y-103220468D01*
X128201009Y-103220468D02*
X128153390Y-103268087D01*
X128153390Y-103268087D02*
X128105771Y-103363325D01*
X128105771Y-103363325D02*
X128105771Y-103553801D01*
X128105771Y-103553801D02*
X128153390Y-103649039D01*
X128153390Y-103649039D02*
X128201009Y-103696658D01*
X128201009Y-103696658D02*
X128296247Y-103744277D01*
X130024819Y-104595238D02*
X130024819Y-105166666D01*
X130024819Y-104880952D02*
X129024819Y-104880952D01*
X129024819Y-104880952D02*
X129167676Y-104976190D01*
X129167676Y-104976190D02*
X129262914Y-105071428D01*
X129262914Y-105071428D02*
X129310533Y-105166666D01*
X129024819Y-103976190D02*
X129024819Y-103880952D01*
X129024819Y-103880952D02*
X129072438Y-103785714D01*
X129072438Y-103785714D02*
X129120057Y-103738095D01*
X129120057Y-103738095D02*
X129215295Y-103690476D01*
X129215295Y-103690476D02*
X129405771Y-103642857D01*
X129405771Y-103642857D02*
X129643866Y-103642857D01*
X129643866Y-103642857D02*
X129834342Y-103690476D01*
X129834342Y-103690476D02*
X129929580Y-103738095D01*
X129929580Y-103738095D02*
X129977200Y-103785714D01*
X129977200Y-103785714D02*
X130024819Y-103880952D01*
X130024819Y-103880952D02*
X130024819Y-103976190D01*
X130024819Y-103976190D02*
X129977200Y-104071428D01*
X129977200Y-104071428D02*
X129929580Y-104119047D01*
X129929580Y-104119047D02*
X129834342Y-104166666D01*
X129834342Y-104166666D02*
X129643866Y-104214285D01*
X129643866Y-104214285D02*
X129405771Y-104214285D01*
X129405771Y-104214285D02*
X129215295Y-104166666D01*
X129215295Y-104166666D02*
X129120057Y-104119047D01*
X129120057Y-104119047D02*
X129072438Y-104071428D01*
X129072438Y-104071428D02*
X129024819Y-103976190D01*
X130024819Y-103214285D02*
X129024819Y-103214285D01*
X129643866Y-103119047D02*
X130024819Y-102833333D01*
X129358152Y-102833333D02*
X129739104Y-103214285D01*
D11*
X124513842Y-91137619D02*
X124574318Y-90956190D01*
X124574318Y-90956190D02*
X124574318Y-90653809D01*
X124574318Y-90653809D02*
X124513842Y-90532857D01*
X124513842Y-90532857D02*
X124453365Y-90472381D01*
X124453365Y-90472381D02*
X124332413Y-90411904D01*
X124332413Y-90411904D02*
X124211461Y-90411904D01*
X124211461Y-90411904D02*
X124090508Y-90472381D01*
X124090508Y-90472381D02*
X124030032Y-90532857D01*
X124030032Y-90532857D02*
X123969556Y-90653809D01*
X123969556Y-90653809D02*
X123909080Y-90895714D01*
X123909080Y-90895714D02*
X123848603Y-91016666D01*
X123848603Y-91016666D02*
X123788127Y-91077143D01*
X123788127Y-91077143D02*
X123667175Y-91137619D01*
X123667175Y-91137619D02*
X123546222Y-91137619D01*
X123546222Y-91137619D02*
X123425270Y-91077143D01*
X123425270Y-91077143D02*
X123364794Y-91016666D01*
X123364794Y-91016666D02*
X123304318Y-90895714D01*
X123304318Y-90895714D02*
X123304318Y-90593333D01*
X123304318Y-90593333D02*
X123364794Y-90411904D01*
X124574318Y-89202380D02*
X124574318Y-89928095D01*
X124574318Y-89565238D02*
X123304318Y-89565238D01*
X123304318Y-89565238D02*
X123485746Y-89686190D01*
X123485746Y-89686190D02*
X123606699Y-89807142D01*
X123606699Y-89807142D02*
X123667175Y-89928095D01*
D10*
X132026819Y-92368666D02*
X131550628Y-92701999D01*
X132026819Y-92940094D02*
X131026819Y-92940094D01*
X131026819Y-92940094D02*
X131026819Y-92559142D01*
X131026819Y-92559142D02*
X131074438Y-92463904D01*
X131074438Y-92463904D02*
X131122057Y-92416285D01*
X131122057Y-92416285D02*
X131217295Y-92368666D01*
X131217295Y-92368666D02*
X131360152Y-92368666D01*
X131360152Y-92368666D02*
X131455390Y-92416285D01*
X131455390Y-92416285D02*
X131503009Y-92463904D01*
X131503009Y-92463904D02*
X131550628Y-92559142D01*
X131550628Y-92559142D02*
X131550628Y-92940094D01*
X131455390Y-91797237D02*
X131407771Y-91892475D01*
X131407771Y-91892475D02*
X131360152Y-91940094D01*
X131360152Y-91940094D02*
X131264914Y-91987713D01*
X131264914Y-91987713D02*
X131217295Y-91987713D01*
X131217295Y-91987713D02*
X131122057Y-91940094D01*
X131122057Y-91940094D02*
X131074438Y-91892475D01*
X131074438Y-91892475D02*
X131026819Y-91797237D01*
X131026819Y-91797237D02*
X131026819Y-91606761D01*
X131026819Y-91606761D02*
X131074438Y-91511523D01*
X131074438Y-91511523D02*
X131122057Y-91463904D01*
X131122057Y-91463904D02*
X131217295Y-91416285D01*
X131217295Y-91416285D02*
X131264914Y-91416285D01*
X131264914Y-91416285D02*
X131360152Y-91463904D01*
X131360152Y-91463904D02*
X131407771Y-91511523D01*
X131407771Y-91511523D02*
X131455390Y-91606761D01*
X131455390Y-91606761D02*
X131455390Y-91797237D01*
X131455390Y-91797237D02*
X131503009Y-91892475D01*
X131503009Y-91892475D02*
X131550628Y-91940094D01*
X131550628Y-91940094D02*
X131645866Y-91987713D01*
X131645866Y-91987713D02*
X131836342Y-91987713D01*
X131836342Y-91987713D02*
X131931580Y-91940094D01*
X131931580Y-91940094D02*
X131979200Y-91892475D01*
X131979200Y-91892475D02*
X132026819Y-91797237D01*
X132026819Y-91797237D02*
X132026819Y-91606761D01*
X132026819Y-91606761D02*
X131979200Y-91511523D01*
X131979200Y-91511523D02*
X131931580Y-91463904D01*
X131931580Y-91463904D02*
X131836342Y-91416285D01*
X131836342Y-91416285D02*
X131645866Y-91416285D01*
X131645866Y-91416285D02*
X131550628Y-91463904D01*
X131550628Y-91463904D02*
X131503009Y-91511523D01*
X131503009Y-91511523D02*
X131455390Y-91606761D01*
X133296819Y-92321047D02*
X133296819Y-92892475D01*
X133296819Y-92606761D02*
X132296819Y-92606761D01*
X132296819Y-92606761D02*
X132439676Y-92701999D01*
X132439676Y-92701999D02*
X132534914Y-92797237D01*
X132534914Y-92797237D02*
X132582533Y-92892475D01*
X133296819Y-91892475D02*
X132296819Y-91892475D01*
X132915866Y-91797237D02*
X133296819Y-91511523D01*
X132630152Y-91511523D02*
X133011104Y-91892475D01*
D12*
X149322809Y-88908333D02*
X149084714Y-89074999D01*
X149322809Y-89194047D02*
X148822809Y-89194047D01*
X148822809Y-89194047D02*
X148822809Y-89003571D01*
X148822809Y-89003571D02*
X148846619Y-88955952D01*
X148846619Y-88955952D02*
X148870428Y-88932142D01*
X148870428Y-88932142D02*
X148918047Y-88908333D01*
X148918047Y-88908333D02*
X148989476Y-88908333D01*
X148989476Y-88908333D02*
X149037095Y-88932142D01*
X149037095Y-88932142D02*
X149060904Y-88955952D01*
X149060904Y-88955952D02*
X149084714Y-89003571D01*
X149084714Y-89003571D02*
X149084714Y-89194047D01*
X148870428Y-88717856D02*
X148846619Y-88694047D01*
X148846619Y-88694047D02*
X148822809Y-88646428D01*
X148822809Y-88646428D02*
X148822809Y-88527380D01*
X148822809Y-88527380D02*
X148846619Y-88479761D01*
X148846619Y-88479761D02*
X148870428Y-88455952D01*
X148870428Y-88455952D02*
X148918047Y-88432142D01*
X148918047Y-88432142D02*
X148965666Y-88432142D01*
X148965666Y-88432142D02*
X149037095Y-88455952D01*
X149037095Y-88455952D02*
X149322809Y-88741666D01*
X149322809Y-88741666D02*
X149322809Y-88432142D01*
X148060809Y-89265475D02*
X148060809Y-89503570D01*
X148060809Y-89503570D02*
X148298904Y-89527379D01*
X148298904Y-89527379D02*
X148275095Y-89503570D01*
X148275095Y-89503570D02*
X148251285Y-89455951D01*
X148251285Y-89455951D02*
X148251285Y-89336903D01*
X148251285Y-89336903D02*
X148275095Y-89289284D01*
X148275095Y-89289284D02*
X148298904Y-89265475D01*
X148298904Y-89265475D02*
X148346523Y-89241665D01*
X148346523Y-89241665D02*
X148465571Y-89241665D01*
X148465571Y-89241665D02*
X148513190Y-89265475D01*
X148513190Y-89265475D02*
X148537000Y-89289284D01*
X148537000Y-89289284D02*
X148560809Y-89336903D01*
X148560809Y-89336903D02*
X148560809Y-89455951D01*
X148560809Y-89455951D02*
X148537000Y-89503570D01*
X148537000Y-89503570D02*
X148513190Y-89527379D01*
X148513190Y-89027380D02*
X148537000Y-89003570D01*
X148537000Y-89003570D02*
X148560809Y-89027380D01*
X148560809Y-89027380D02*
X148537000Y-89051189D01*
X148537000Y-89051189D02*
X148513190Y-89027380D01*
X148513190Y-89027380D02*
X148560809Y-89027380D01*
X148560809Y-88527380D02*
X148560809Y-88813094D01*
X148560809Y-88670237D02*
X148060809Y-88670237D01*
X148060809Y-88670237D02*
X148132238Y-88717856D01*
X148132238Y-88717856D02*
X148179857Y-88765475D01*
X148179857Y-88765475D02*
X148203666Y-88813094D01*
X148560809Y-88313095D02*
X148060809Y-88313095D01*
X148370333Y-88265476D02*
X148560809Y-88122619D01*
X148227476Y-88122619D02*
X148417952Y-88313095D01*
D10*
X135582819Y-98718666D02*
X135106628Y-99051999D01*
X135582819Y-99290094D02*
X134582819Y-99290094D01*
X134582819Y-99290094D02*
X134582819Y-98909142D01*
X134582819Y-98909142D02*
X134630438Y-98813904D01*
X134630438Y-98813904D02*
X134678057Y-98766285D01*
X134678057Y-98766285D02*
X134773295Y-98718666D01*
X134773295Y-98718666D02*
X134916152Y-98718666D01*
X134916152Y-98718666D02*
X135011390Y-98766285D01*
X135011390Y-98766285D02*
X135059009Y-98813904D01*
X135059009Y-98813904D02*
X135106628Y-98909142D01*
X135106628Y-98909142D02*
X135106628Y-99290094D01*
X134582819Y-98385332D02*
X134582819Y-97766285D01*
X134582819Y-97766285D02*
X134963771Y-98099618D01*
X134963771Y-98099618D02*
X134963771Y-97956761D01*
X134963771Y-97956761D02*
X135011390Y-97861523D01*
X135011390Y-97861523D02*
X135059009Y-97813904D01*
X135059009Y-97813904D02*
X135154247Y-97766285D01*
X135154247Y-97766285D02*
X135392342Y-97766285D01*
X135392342Y-97766285D02*
X135487580Y-97813904D01*
X135487580Y-97813904D02*
X135535200Y-97861523D01*
X135535200Y-97861523D02*
X135582819Y-97956761D01*
X135582819Y-97956761D02*
X135582819Y-98242475D01*
X135582819Y-98242475D02*
X135535200Y-98337713D01*
X135535200Y-98337713D02*
X135487580Y-98385332D01*
D12*
X133328809Y-100218856D02*
X133328809Y-100314094D01*
X133328809Y-100314094D02*
X133352619Y-100361713D01*
X133352619Y-100361713D02*
X133376428Y-100385523D01*
X133376428Y-100385523D02*
X133447857Y-100433142D01*
X133447857Y-100433142D02*
X133543095Y-100456951D01*
X133543095Y-100456951D02*
X133733571Y-100456951D01*
X133733571Y-100456951D02*
X133781190Y-100433142D01*
X133781190Y-100433142D02*
X133805000Y-100409332D01*
X133805000Y-100409332D02*
X133828809Y-100361713D01*
X133828809Y-100361713D02*
X133828809Y-100266475D01*
X133828809Y-100266475D02*
X133805000Y-100218856D01*
X133805000Y-100218856D02*
X133781190Y-100195047D01*
X133781190Y-100195047D02*
X133733571Y-100171237D01*
X133733571Y-100171237D02*
X133614523Y-100171237D01*
X133614523Y-100171237D02*
X133566904Y-100195047D01*
X133566904Y-100195047D02*
X133543095Y-100218856D01*
X133543095Y-100218856D02*
X133519285Y-100266475D01*
X133519285Y-100266475D02*
X133519285Y-100361713D01*
X133519285Y-100361713D02*
X133543095Y-100409332D01*
X133543095Y-100409332D02*
X133566904Y-100433142D01*
X133566904Y-100433142D02*
X133614523Y-100456951D01*
X133543095Y-99885523D02*
X133519285Y-99933142D01*
X133519285Y-99933142D02*
X133495476Y-99956952D01*
X133495476Y-99956952D02*
X133447857Y-99980761D01*
X133447857Y-99980761D02*
X133424047Y-99980761D01*
X133424047Y-99980761D02*
X133376428Y-99956952D01*
X133376428Y-99956952D02*
X133352619Y-99933142D01*
X133352619Y-99933142D02*
X133328809Y-99885523D01*
X133328809Y-99885523D02*
X133328809Y-99790285D01*
X133328809Y-99790285D02*
X133352619Y-99742666D01*
X133352619Y-99742666D02*
X133376428Y-99718857D01*
X133376428Y-99718857D02*
X133424047Y-99695047D01*
X133424047Y-99695047D02*
X133447857Y-99695047D01*
X133447857Y-99695047D02*
X133495476Y-99718857D01*
X133495476Y-99718857D02*
X133519285Y-99742666D01*
X133519285Y-99742666D02*
X133543095Y-99790285D01*
X133543095Y-99790285D02*
X133543095Y-99885523D01*
X133543095Y-99885523D02*
X133566904Y-99933142D01*
X133566904Y-99933142D02*
X133590714Y-99956952D01*
X133590714Y-99956952D02*
X133638333Y-99980761D01*
X133638333Y-99980761D02*
X133733571Y-99980761D01*
X133733571Y-99980761D02*
X133781190Y-99956952D01*
X133781190Y-99956952D02*
X133805000Y-99933142D01*
X133805000Y-99933142D02*
X133828809Y-99885523D01*
X133828809Y-99885523D02*
X133828809Y-99790285D01*
X133828809Y-99790285D02*
X133805000Y-99742666D01*
X133805000Y-99742666D02*
X133781190Y-99718857D01*
X133781190Y-99718857D02*
X133733571Y-99695047D01*
X133733571Y-99695047D02*
X133638333Y-99695047D01*
X133638333Y-99695047D02*
X133590714Y-99718857D01*
X133590714Y-99718857D02*
X133566904Y-99742666D01*
X133566904Y-99742666D02*
X133543095Y-99790285D01*
D10*
X136852819Y-88304666D02*
X136376628Y-88637999D01*
X136852819Y-88876094D02*
X135852819Y-88876094D01*
X135852819Y-88876094D02*
X135852819Y-88495142D01*
X135852819Y-88495142D02*
X135900438Y-88399904D01*
X135900438Y-88399904D02*
X135948057Y-88352285D01*
X135948057Y-88352285D02*
X136043295Y-88304666D01*
X136043295Y-88304666D02*
X136186152Y-88304666D01*
X136186152Y-88304666D02*
X136281390Y-88352285D01*
X136281390Y-88352285D02*
X136329009Y-88399904D01*
X136329009Y-88399904D02*
X136376628Y-88495142D01*
X136376628Y-88495142D02*
X136376628Y-88876094D01*
X135852819Y-87971332D02*
X135852819Y-87304666D01*
X135852819Y-87304666D02*
X136852819Y-87733237D01*
X138282819Y-88733238D02*
X138282819Y-89304666D01*
X138282819Y-89018952D02*
X137282819Y-89018952D01*
X137282819Y-89018952D02*
X137425676Y-89114190D01*
X137425676Y-89114190D02*
X137520914Y-89209428D01*
X137520914Y-89209428D02*
X137568533Y-89304666D01*
X137282819Y-88114190D02*
X137282819Y-88018952D01*
X137282819Y-88018952D02*
X137330438Y-87923714D01*
X137330438Y-87923714D02*
X137378057Y-87876095D01*
X137378057Y-87876095D02*
X137473295Y-87828476D01*
X137473295Y-87828476D02*
X137663771Y-87780857D01*
X137663771Y-87780857D02*
X137901866Y-87780857D01*
X137901866Y-87780857D02*
X138092342Y-87828476D01*
X138092342Y-87828476D02*
X138187580Y-87876095D01*
X138187580Y-87876095D02*
X138235200Y-87923714D01*
X138235200Y-87923714D02*
X138282819Y-88018952D01*
X138282819Y-88018952D02*
X138282819Y-88114190D01*
X138282819Y-88114190D02*
X138235200Y-88209428D01*
X138235200Y-88209428D02*
X138187580Y-88257047D01*
X138187580Y-88257047D02*
X138092342Y-88304666D01*
X138092342Y-88304666D02*
X137901866Y-88352285D01*
X137901866Y-88352285D02*
X137663771Y-88352285D01*
X137663771Y-88352285D02*
X137473295Y-88304666D01*
X137473295Y-88304666D02*
X137378057Y-88257047D01*
X137378057Y-88257047D02*
X137330438Y-88209428D01*
X137330438Y-88209428D02*
X137282819Y-88114190D01*
X138282819Y-87352285D02*
X137282819Y-87352285D01*
X137901866Y-87257047D02*
X138282819Y-86971333D01*
X137616152Y-86971333D02*
X137997104Y-87352285D01*
D11*
X128336318Y-99028095D02*
X128336318Y-98181428D01*
X128336318Y-98181428D02*
X129606318Y-99028095D01*
X129606318Y-99028095D02*
X129606318Y-98181428D01*
X129606318Y-97032380D02*
X129606318Y-97758095D01*
X129606318Y-97395238D02*
X128336318Y-97395238D01*
X128336318Y-97395238D02*
X128517746Y-97516190D01*
X128517746Y-97516190D02*
X128638699Y-97637142D01*
X128638699Y-97637142D02*
X128699175Y-97758095D01*
D10*
X148044819Y-102333333D02*
X148759104Y-102333333D01*
X148759104Y-102333333D02*
X148901961Y-102380952D01*
X148901961Y-102380952D02*
X148997200Y-102476190D01*
X148997200Y-102476190D02*
X149044819Y-102619047D01*
X149044819Y-102619047D02*
X149044819Y-102714285D01*
X149044819Y-101333333D02*
X149044819Y-101904761D01*
X149044819Y-101619047D02*
X148044819Y-101619047D01*
X148044819Y-101619047D02*
X148187676Y-101714285D01*
X148187676Y-101714285D02*
X148282914Y-101809523D01*
X148282914Y-101809523D02*
X148330533Y-101904761D01*
X138009333Y-96212819D02*
X137676000Y-95736628D01*
X137437905Y-96212819D02*
X137437905Y-95212819D01*
X137437905Y-95212819D02*
X137818857Y-95212819D01*
X137818857Y-95212819D02*
X137914095Y-95260438D01*
X137914095Y-95260438D02*
X137961714Y-95308057D01*
X137961714Y-95308057D02*
X138009333Y-95403295D01*
X138009333Y-95403295D02*
X138009333Y-95546152D01*
X138009333Y-95546152D02*
X137961714Y-95641390D01*
X137961714Y-95641390D02*
X137914095Y-95689009D01*
X137914095Y-95689009D02*
X137818857Y-95736628D01*
X137818857Y-95736628D02*
X137437905Y-95736628D01*
X138914095Y-95212819D02*
X138437905Y-95212819D01*
X138437905Y-95212819D02*
X138390286Y-95689009D01*
X138390286Y-95689009D02*
X138437905Y-95641390D01*
X138437905Y-95641390D02*
X138533143Y-95593771D01*
X138533143Y-95593771D02*
X138771238Y-95593771D01*
X138771238Y-95593771D02*
X138866476Y-95641390D01*
X138866476Y-95641390D02*
X138914095Y-95689009D01*
X138914095Y-95689009D02*
X138961714Y-95784247D01*
X138961714Y-95784247D02*
X138961714Y-96022342D01*
X138961714Y-96022342D02*
X138914095Y-96117580D01*
X138914095Y-96117580D02*
X138866476Y-96165200D01*
X138866476Y-96165200D02*
X138771238Y-96212819D01*
X138771238Y-96212819D02*
X138533143Y-96212819D01*
X138533143Y-96212819D02*
X138437905Y-96165200D01*
X138437905Y-96165200D02*
X138390286Y-96117580D01*
X137596666Y-97482819D02*
X137025238Y-97482819D01*
X137310952Y-97482819D02*
X137310952Y-96482819D01*
X137310952Y-96482819D02*
X137215714Y-96625676D01*
X137215714Y-96625676D02*
X137120476Y-96720914D01*
X137120476Y-96720914D02*
X137025238Y-96768533D01*
X138025238Y-97387580D02*
X138072857Y-97435200D01*
X138072857Y-97435200D02*
X138025238Y-97482819D01*
X138025238Y-97482819D02*
X137977619Y-97435200D01*
X137977619Y-97435200D02*
X138025238Y-97387580D01*
X138025238Y-97387580D02*
X138025238Y-97482819D01*
X138977618Y-96482819D02*
X138501428Y-96482819D01*
X138501428Y-96482819D02*
X138453809Y-96959009D01*
X138453809Y-96959009D02*
X138501428Y-96911390D01*
X138501428Y-96911390D02*
X138596666Y-96863771D01*
X138596666Y-96863771D02*
X138834761Y-96863771D01*
X138834761Y-96863771D02*
X138929999Y-96911390D01*
X138929999Y-96911390D02*
X138977618Y-96959009D01*
X138977618Y-96959009D02*
X139025237Y-97054247D01*
X139025237Y-97054247D02*
X139025237Y-97292342D01*
X139025237Y-97292342D02*
X138977618Y-97387580D01*
X138977618Y-97387580D02*
X138929999Y-97435200D01*
X138929999Y-97435200D02*
X138834761Y-97482819D01*
X138834761Y-97482819D02*
X138596666Y-97482819D01*
X138596666Y-97482819D02*
X138501428Y-97435200D01*
X138501428Y-97435200D02*
X138453809Y-97387580D01*
X139453809Y-97482819D02*
X139453809Y-96482819D01*
X139549047Y-97101866D02*
X139834761Y-97482819D01*
X139834761Y-96816152D02*
X139453809Y-97197104D01*
D12*
X142156666Y-105841190D02*
X142132857Y-105865000D01*
X142132857Y-105865000D02*
X142061428Y-105888809D01*
X142061428Y-105888809D02*
X142013809Y-105888809D01*
X142013809Y-105888809D02*
X141942381Y-105865000D01*
X141942381Y-105865000D02*
X141894762Y-105817380D01*
X141894762Y-105817380D02*
X141870952Y-105769761D01*
X141870952Y-105769761D02*
X141847143Y-105674523D01*
X141847143Y-105674523D02*
X141847143Y-105603095D01*
X141847143Y-105603095D02*
X141870952Y-105507857D01*
X141870952Y-105507857D02*
X141894762Y-105460238D01*
X141894762Y-105460238D02*
X141942381Y-105412619D01*
X141942381Y-105412619D02*
X142013809Y-105388809D01*
X142013809Y-105388809D02*
X142061428Y-105388809D01*
X142061428Y-105388809D02*
X142132857Y-105412619D01*
X142132857Y-105412619D02*
X142156666Y-105436428D01*
X142632857Y-105888809D02*
X142347143Y-105888809D01*
X142490000Y-105888809D02*
X142490000Y-105388809D01*
X142490000Y-105388809D02*
X142442381Y-105460238D01*
X142442381Y-105460238D02*
X142394762Y-105507857D01*
X142394762Y-105507857D02*
X142347143Y-105531666D01*
X143909476Y-104488094D02*
X144242809Y-104488094D01*
X143719000Y-104607142D02*
X144076142Y-104726189D01*
X144076142Y-104726189D02*
X144076142Y-104416666D01*
X144195190Y-104226190D02*
X144219000Y-104202380D01*
X144219000Y-104202380D02*
X144242809Y-104226190D01*
X144242809Y-104226190D02*
X144219000Y-104249999D01*
X144219000Y-104249999D02*
X144195190Y-104226190D01*
X144195190Y-104226190D02*
X144242809Y-104226190D01*
X143742809Y-104035714D02*
X143742809Y-103702381D01*
X143742809Y-103702381D02*
X144242809Y-103916666D01*
X143909476Y-103297619D02*
X144242809Y-103297619D01*
X143909476Y-103511905D02*
X144171380Y-103511905D01*
X144171380Y-103511905D02*
X144219000Y-103488095D01*
X144219000Y-103488095D02*
X144242809Y-103440476D01*
X144242809Y-103440476D02*
X144242809Y-103369048D01*
X144242809Y-103369048D02*
X144219000Y-103321429D01*
X144219000Y-103321429D02*
X144195190Y-103297619D01*
D11*
X142826618Y-102174318D02*
X142826618Y-100904318D01*
X142826618Y-100904318D02*
X143128999Y-100904318D01*
X143128999Y-100904318D02*
X143310428Y-100964794D01*
X143310428Y-100964794D02*
X143431380Y-101085746D01*
X143431380Y-101085746D02*
X143491857Y-101206699D01*
X143491857Y-101206699D02*
X143552333Y-101448603D01*
X143552333Y-101448603D02*
X143552333Y-101630032D01*
X143552333Y-101630032D02*
X143491857Y-101871937D01*
X143491857Y-101871937D02*
X143431380Y-101992889D01*
X143431380Y-101992889D02*
X143310428Y-102113842D01*
X143310428Y-102113842D02*
X143128999Y-102174318D01*
X143128999Y-102174318D02*
X142826618Y-102174318D01*
X144761857Y-102174318D02*
X144036142Y-102174318D01*
X144398999Y-102174318D02*
X144398999Y-100904318D01*
X144398999Y-100904318D02*
X144278047Y-101085746D01*
X144278047Y-101085746D02*
X144157095Y-101206699D01*
X144157095Y-101206699D02*
X144036142Y-101267175D01*
D12*
X141394666Y-109698809D02*
X141228000Y-109460714D01*
X141108952Y-109698809D02*
X141108952Y-109198809D01*
X141108952Y-109198809D02*
X141299428Y-109198809D01*
X141299428Y-109198809D02*
X141347047Y-109222619D01*
X141347047Y-109222619D02*
X141370857Y-109246428D01*
X141370857Y-109246428D02*
X141394666Y-109294047D01*
X141394666Y-109294047D02*
X141394666Y-109365476D01*
X141394666Y-109365476D02*
X141370857Y-109413095D01*
X141370857Y-109413095D02*
X141347047Y-109436904D01*
X141347047Y-109436904D02*
X141299428Y-109460714D01*
X141299428Y-109460714D02*
X141108952Y-109460714D01*
X141632762Y-109698809D02*
X141728000Y-109698809D01*
X141728000Y-109698809D02*
X141775619Y-109675000D01*
X141775619Y-109675000D02*
X141799428Y-109651190D01*
X141799428Y-109651190D02*
X141847047Y-109579761D01*
X141847047Y-109579761D02*
X141870857Y-109484523D01*
X141870857Y-109484523D02*
X141870857Y-109294047D01*
X141870857Y-109294047D02*
X141847047Y-109246428D01*
X141847047Y-109246428D02*
X141823238Y-109222619D01*
X141823238Y-109222619D02*
X141775619Y-109198809D01*
X141775619Y-109198809D02*
X141680381Y-109198809D01*
X141680381Y-109198809D02*
X141632762Y-109222619D01*
X141632762Y-109222619D02*
X141608952Y-109246428D01*
X141608952Y-109246428D02*
X141585143Y-109294047D01*
X141585143Y-109294047D02*
X141585143Y-109413095D01*
X141585143Y-109413095D02*
X141608952Y-109460714D01*
X141608952Y-109460714D02*
X141632762Y-109484523D01*
X141632762Y-109484523D02*
X141680381Y-109508333D01*
X141680381Y-109508333D02*
X141775619Y-109508333D01*
X141775619Y-109508333D02*
X141823238Y-109484523D01*
X141823238Y-109484523D02*
X141847047Y-109460714D01*
X141847047Y-109460714D02*
X141870857Y-109413095D01*
X142688476Y-109698809D02*
X142402762Y-109698809D01*
X142545619Y-109698809D02*
X142545619Y-109198809D01*
X142545619Y-109198809D02*
X142498000Y-109270238D01*
X142498000Y-109270238D02*
X142450381Y-109317857D01*
X142450381Y-109317857D02*
X142402762Y-109341666D01*
X142902761Y-109698809D02*
X142902761Y-109198809D01*
X142950380Y-109508333D02*
X143093237Y-109698809D01*
X143093237Y-109365476D02*
X142902761Y-109555952D01*
D10*
X129032095Y-89370819D02*
X129032095Y-90180342D01*
X129032095Y-90180342D02*
X129079714Y-90275580D01*
X129079714Y-90275580D02*
X129127333Y-90323200D01*
X129127333Y-90323200D02*
X129222571Y-90370819D01*
X129222571Y-90370819D02*
X129413047Y-90370819D01*
X129413047Y-90370819D02*
X129508285Y-90323200D01*
X129508285Y-90323200D02*
X129555904Y-90275580D01*
X129555904Y-90275580D02*
X129603523Y-90180342D01*
X129603523Y-90180342D02*
X129603523Y-89370819D01*
X130032095Y-89466057D02*
X130079714Y-89418438D01*
X130079714Y-89418438D02*
X130174952Y-89370819D01*
X130174952Y-89370819D02*
X130413047Y-89370819D01*
X130413047Y-89370819D02*
X130508285Y-89418438D01*
X130508285Y-89418438D02*
X130555904Y-89466057D01*
X130555904Y-89466057D02*
X130603523Y-89561295D01*
X130603523Y-89561295D02*
X130603523Y-89656533D01*
X130603523Y-89656533D02*
X130555904Y-89799390D01*
X130555904Y-89799390D02*
X129984476Y-90370819D01*
X129984476Y-90370819D02*
X130603523Y-90370819D01*
X136874222Y-98718666D02*
X136398031Y-99051999D01*
X136874222Y-99290094D02*
X135874222Y-99290094D01*
X135874222Y-99290094D02*
X135874222Y-98909142D01*
X135874222Y-98909142D02*
X135921841Y-98813904D01*
X135921841Y-98813904D02*
X135969460Y-98766285D01*
X135969460Y-98766285D02*
X136064698Y-98718666D01*
X136064698Y-98718666D02*
X136207555Y-98718666D01*
X136207555Y-98718666D02*
X136302793Y-98766285D01*
X136302793Y-98766285D02*
X136350412Y-98813904D01*
X136350412Y-98813904D02*
X136398031Y-98909142D01*
X136398031Y-98909142D02*
X136398031Y-99290094D01*
X136207555Y-97861523D02*
X136874222Y-97861523D01*
X135826603Y-98099618D02*
X136540888Y-98337713D01*
X136540888Y-98337713D02*
X136540888Y-97718666D01*
D12*
X137900809Y-101742856D02*
X137900809Y-101838094D01*
X137900809Y-101838094D02*
X137924619Y-101885713D01*
X137924619Y-101885713D02*
X137948428Y-101909523D01*
X137948428Y-101909523D02*
X138019857Y-101957142D01*
X138019857Y-101957142D02*
X138115095Y-101980951D01*
X138115095Y-101980951D02*
X138305571Y-101980951D01*
X138305571Y-101980951D02*
X138353190Y-101957142D01*
X138353190Y-101957142D02*
X138377000Y-101933332D01*
X138377000Y-101933332D02*
X138400809Y-101885713D01*
X138400809Y-101885713D02*
X138400809Y-101790475D01*
X138400809Y-101790475D02*
X138377000Y-101742856D01*
X138377000Y-101742856D02*
X138353190Y-101719047D01*
X138353190Y-101719047D02*
X138305571Y-101695237D01*
X138305571Y-101695237D02*
X138186523Y-101695237D01*
X138186523Y-101695237D02*
X138138904Y-101719047D01*
X138138904Y-101719047D02*
X138115095Y-101742856D01*
X138115095Y-101742856D02*
X138091285Y-101790475D01*
X138091285Y-101790475D02*
X138091285Y-101885713D01*
X138091285Y-101885713D02*
X138115095Y-101933332D01*
X138115095Y-101933332D02*
X138138904Y-101957142D01*
X138138904Y-101957142D02*
X138186523Y-101980951D01*
X138115095Y-101409523D02*
X138091285Y-101457142D01*
X138091285Y-101457142D02*
X138067476Y-101480952D01*
X138067476Y-101480952D02*
X138019857Y-101504761D01*
X138019857Y-101504761D02*
X137996047Y-101504761D01*
X137996047Y-101504761D02*
X137948428Y-101480952D01*
X137948428Y-101480952D02*
X137924619Y-101457142D01*
X137924619Y-101457142D02*
X137900809Y-101409523D01*
X137900809Y-101409523D02*
X137900809Y-101314285D01*
X137900809Y-101314285D02*
X137924619Y-101266666D01*
X137924619Y-101266666D02*
X137948428Y-101242857D01*
X137948428Y-101242857D02*
X137996047Y-101219047D01*
X137996047Y-101219047D02*
X138019857Y-101219047D01*
X138019857Y-101219047D02*
X138067476Y-101242857D01*
X138067476Y-101242857D02*
X138091285Y-101266666D01*
X138091285Y-101266666D02*
X138115095Y-101314285D01*
X138115095Y-101314285D02*
X138115095Y-101409523D01*
X138115095Y-101409523D02*
X138138904Y-101457142D01*
X138138904Y-101457142D02*
X138162714Y-101480952D01*
X138162714Y-101480952D02*
X138210333Y-101504761D01*
X138210333Y-101504761D02*
X138305571Y-101504761D01*
X138305571Y-101504761D02*
X138353190Y-101480952D01*
X138353190Y-101480952D02*
X138377000Y-101457142D01*
X138377000Y-101457142D02*
X138400809Y-101409523D01*
X138400809Y-101409523D02*
X138400809Y-101314285D01*
X138400809Y-101314285D02*
X138377000Y-101266666D01*
X138377000Y-101266666D02*
X138353190Y-101242857D01*
X138353190Y-101242857D02*
X138305571Y-101219047D01*
X138305571Y-101219047D02*
X138210333Y-101219047D01*
X138210333Y-101219047D02*
X138162714Y-101242857D01*
X138162714Y-101242857D02*
X138138904Y-101266666D01*
X138138904Y-101266666D02*
X138115095Y-101314285D01*
D11*
X128336318Y-102374095D02*
X128336318Y-101527428D01*
X128336318Y-101527428D02*
X129606318Y-102374095D01*
X129606318Y-102374095D02*
X129606318Y-101527428D01*
X128457270Y-101104095D02*
X128396794Y-101043619D01*
X128396794Y-101043619D02*
X128336318Y-100922666D01*
X128336318Y-100922666D02*
X128336318Y-100620285D01*
X128336318Y-100620285D02*
X128396794Y-100499333D01*
X128396794Y-100499333D02*
X128457270Y-100438857D01*
X128457270Y-100438857D02*
X128578222Y-100378380D01*
X128578222Y-100378380D02*
X128699175Y-100378380D01*
X128699175Y-100378380D02*
X128880603Y-100438857D01*
X128880603Y-100438857D02*
X129606318Y-101164571D01*
X129606318Y-101164571D02*
X129606318Y-100378380D01*
D13*
%TO.C,R1*%
X144477500Y-89062258D02*
X144477500Y-88587742D01*
X145522500Y-89062258D02*
X145522500Y-88587742D01*
D14*
%TO.C,U1*%
X134355000Y-103380000D02*
X139645000Y-103380000D01*
X134355000Y-108620000D02*
X139645000Y-108620000D01*
D15*
X131760000Y-103515000D02*
G75*
G02*
X131560000Y-103515000I-100000J0D01*
G01*
X131560000Y-103515000D02*
G75*
G02*
X131760000Y-103515000I100000J0D01*
G01*
D13*
%TO.C,C2*%
X144490000Y-103859420D02*
X144490000Y-104140580D01*
X145510000Y-103859420D02*
X145510000Y-104140580D01*
%TO.C,C3*%
X130490000Y-106859420D02*
X130490000Y-107140580D01*
X131510000Y-106859420D02*
X131510000Y-107140580D01*
%TO.C,R6*%
X130477500Y-103762742D02*
X130477500Y-104237258D01*
X131522500Y-103762742D02*
X131522500Y-104237258D01*
D15*
%TO.C,S1*%
X120950000Y-97800000D02*
X120950000Y-92200000D01*
X121700000Y-89300000D02*
X121700000Y-89300000D01*
X121700000Y-89500000D02*
X121700000Y-89500000D01*
X122600000Y-91950000D02*
X125400000Y-91950000D01*
X122600000Y-98050000D02*
X125400000Y-98050000D01*
X127050000Y-97800000D02*
X127050000Y-92200000D01*
X121700000Y-89300000D02*
G75*
G02*
X121700000Y-89500000I0J-100000D01*
G01*
X121700000Y-89500000D02*
G75*
G02*
X121700000Y-89300000I0J100000D01*
G01*
D13*
%TO.C,R8*%
X134097500Y-90915258D02*
X134097500Y-90440742D01*
X135142500Y-90915258D02*
X135142500Y-90440742D01*
D15*
%TO.C,D4*%
X132004000Y-86805000D02*
X132004000Y-88455000D01*
X132004000Y-88455000D02*
X134504000Y-88455000D01*
X134504000Y-86805000D02*
X132004000Y-86805000D01*
D13*
%TO.C,R2*%
X146477500Y-88587742D02*
X146477500Y-89062258D01*
X147522500Y-88587742D02*
X147522500Y-89062258D01*
%TO.C,R3*%
X134477500Y-101237258D02*
X134477500Y-100762742D01*
X135522500Y-101237258D02*
X135522500Y-100762742D01*
%TO.C,R7*%
X135875500Y-90915258D02*
X135875500Y-90440742D01*
X136920500Y-90915258D02*
X136920500Y-90440742D01*
D16*
%TO.C,Z1*%
X132600000Y-97375000D02*
X131400000Y-97375000D01*
X132600000Y-98625000D02*
X131400000Y-98625000D01*
D15*
X133800000Y-97900000D02*
X133800000Y-97900000D01*
X133800000Y-98100000D02*
X133800000Y-98100000D01*
X133800000Y-97900000D02*
G75*
G02*
X133800000Y-98100000I0J-100000D01*
G01*
X133800000Y-98100000D02*
G75*
G02*
X133800000Y-97900000I0J100000D01*
G01*
D14*
%TO.C,J1*%
X146525000Y-91280000D02*
X144935000Y-91280000D01*
X146525000Y-100220000D02*
X144935000Y-100220000D01*
X150345000Y-91280000D02*
X148965000Y-91280000D01*
X150345000Y-91280000D02*
X150345000Y-100220000D01*
X150345000Y-100220000D02*
X148965000Y-100220000D01*
D15*
X141845000Y-98950000D02*
G75*
G02*
X141645000Y-98950000I-100000J0D01*
G01*
X141645000Y-98950000D02*
G75*
G02*
X141845000Y-98950000I100000J0D01*
G01*
%TO.C,D5*%
X143447000Y-105842000D02*
X143447000Y-108342000D01*
X145097000Y-105842000D02*
X143447000Y-105842000D01*
X145097000Y-108342000D02*
X145097000Y-105842000D01*
D13*
%TO.C,R5*%
X138192742Y-97902500D02*
X138667258Y-97902500D01*
X138192742Y-98947500D02*
X138667258Y-98947500D01*
%TO.C,C1*%
X142490000Y-103859420D02*
X142490000Y-104140580D01*
X143510000Y-103859420D02*
X143510000Y-104140580D01*
D16*
%TO.C,D1*%
X141000000Y-98150000D02*
X141000000Y-98150000D01*
X141000000Y-98250000D02*
X141000000Y-98250000D01*
X141000000Y-98150000D02*
G75*
G02*
X141000000Y-98250000I0J-50000D01*
G01*
X141000000Y-98250000D02*
G75*
G02*
X141000000Y-98150000I0J50000D01*
G01*
D13*
%TO.C,R9*%
X142225500Y-107204742D02*
X142225500Y-107679258D01*
X143270500Y-107204742D02*
X143270500Y-107679258D01*
%TO.C,R4*%
X136477500Y-101237258D02*
X136477500Y-100762742D01*
X137522500Y-101237258D02*
X137522500Y-100762742D01*
D16*
%TO.C,Z2*%
X132600000Y-101375000D02*
X131400000Y-101375000D01*
X132600000Y-102625000D02*
X131400000Y-102625000D01*
D15*
X133800000Y-101900000D02*
X133800000Y-101900000D01*
X133800000Y-102100000D02*
X133800000Y-102100000D01*
X133800000Y-101900000D02*
G75*
G02*
X133800000Y-102100000I0J-100000D01*
G01*
X133800000Y-102100000D02*
G75*
G02*
X133800000Y-101900000I0J100000D01*
G01*
%TD*%
M02*
