%TF.GenerationSoftware,KiCad,Pcbnew,9.0.0*%
%TF.CreationDate,2025-04-28T15:11:58+09:00*%
%TF.ProjectId,1Keyboard,314b6579-626f-4617-9264-2e6b69636164,rev?*%
%TF.SameCoordinates,Original*%
%TF.FileFunction,Soldermask,Top*%
%TF.FilePolarity,Negative*%
%FSLAX46Y46*%
G04 Gerber Fmt 4.6, Leading zero omitted, Abs format (unit mm)*
G04 Created by KiCad (PCBNEW 9.0.0) date 2025-04-28 15:11:58*
%MOMM*%
%LPD*%
G01*
G04 APERTURE LIST*
G04 Aperture macros list*
%AMRoundRect*
0 Rectangle with rounded corners*
0 $1 Rounding radius*
0 $2 $3 $4 $5 $6 $7 $8 $9 X,Y pos of 4 corners*
0 Add a 4 corners polygon primitive as box body*
4,1,4,$2,$3,$4,$5,$6,$7,$8,$9,$2,$3,0*
0 Add four circle primitives for the rounded corners*
1,1,$1+$1,$2,$3*
1,1,$1+$1,$4,$5*
1,1,$1+$1,$6,$7*
1,1,$1+$1,$8,$9*
0 Add four rect primitives between the rounded corners*
20,1,$1+$1,$2,$3,$4,$5,0*
20,1,$1+$1,$4,$5,$6,$7,0*
20,1,$1+$1,$6,$7,$8,$9,0*
20,1,$1+$1,$8,$9,$2,$3,0*%
G04 Aperture macros list end*
%ADD10RoundRect,0.200000X0.275000X-0.200000X0.275000X0.200000X-0.275000X0.200000X-0.275000X-0.200000X0*%
%ADD11RoundRect,0.098000X-0.859000X-0.294000X0.859000X-0.294000X0.859000X0.294000X-0.859000X0.294000X0*%
%ADD12RoundRect,0.225000X-0.250000X0.225000X-0.250000X-0.225000X0.250000X-0.225000X0.250000X0.225000X0*%
%ADD13RoundRect,0.200000X-0.275000X0.200000X-0.275000X-0.200000X0.275000X-0.200000X0.275000X0.200000X0*%
%ADD14R,1.000000X1.800000*%
%ADD15C,3.200000*%
%ADD16R,0.700000X0.950000*%
%ADD17R,0.800000X0.900000*%
%ADD18C,0.650000*%
%ADD19RoundRect,0.102000X0.575000X-0.300000X0.575000X0.300000X-0.575000X0.300000X-0.575000X-0.300000X0*%
%ADD20RoundRect,0.102000X0.575000X-0.150000X0.575000X0.150000X-0.575000X0.150000X-0.575000X-0.150000X0*%
%ADD21O,2.004000X1.204000*%
%ADD22O,2.304000X1.204000*%
%ADD23R,0.950000X0.700000*%
%ADD24RoundRect,0.200000X-0.200000X-0.275000X0.200000X-0.275000X0.200000X0.275000X-0.200000X0.275000X0*%
%ADD25R,0.800000X0.800000*%
%ADD26R,1.100000X2.000000*%
%ADD27C,1.700000*%
%ADD28C,3.987800*%
%ADD29C,1.712000*%
%ADD30C,2.454000*%
%ADD31C,4.300000*%
G04 APERTURE END LIST*
D10*
%TO.C,R1*%
X145000000Y-89650000D03*
X145000000Y-88000000D03*
%TD*%
D11*
%TO.C,U1*%
X133370000Y-104095000D03*
X133370000Y-105365000D03*
X133370000Y-106635000D03*
X133370000Y-107905000D03*
X140630000Y-107905000D03*
X140630000Y-106635000D03*
X140630000Y-105365000D03*
X140630000Y-104095000D03*
%TD*%
D12*
%TO.C,C2*%
X145000000Y-103225000D03*
X145000000Y-104775000D03*
%TD*%
%TO.C,C3*%
X131000000Y-106225000D03*
X131000000Y-107775000D03*
%TD*%
D13*
%TO.C,R6*%
X131000000Y-103175000D03*
X131000000Y-104825000D03*
%TD*%
D14*
%TO.C,S1*%
X121750000Y-90900000D03*
X121750000Y-99100000D03*
X126250000Y-90900000D03*
X126250000Y-99100000D03*
%TD*%
D10*
%TO.C,R8*%
X134620000Y-91503000D03*
X134620000Y-89853000D03*
%TD*%
D15*
%TO.C,REF\u002A\u002A*%
X123000000Y-107000000D03*
%TD*%
D16*
%TO.C,D4*%
X132704000Y-87630000D03*
X134504000Y-87630000D03*
%TD*%
D13*
%TO.C,R2*%
X147000000Y-88000000D03*
X147000000Y-89650000D03*
%TD*%
D10*
%TO.C,R3*%
X135000000Y-101825000D03*
X135000000Y-100175000D03*
%TD*%
D15*
%TO.C,REF\u002A\u002A*%
X147000000Y-83000000D03*
%TD*%
D10*
%TO.C,R7*%
X136398000Y-91503000D03*
X136398000Y-89853000D03*
%TD*%
D15*
%TO.C,REF\u002A\u002A*%
X147000000Y-107000000D03*
%TD*%
D17*
%TO.C,Z1*%
X133050000Y-98000000D03*
X130950000Y-98000000D03*
%TD*%
D18*
%TO.C,J1*%
X144065000Y-98640000D03*
X144065000Y-92860000D03*
D19*
X143000000Y-98950000D03*
X143000000Y-98150000D03*
D20*
X143000000Y-97000000D03*
X143000000Y-96000000D03*
X143000000Y-95500000D03*
X143000000Y-94500000D03*
D19*
X143000000Y-92550000D03*
X143000000Y-93350000D03*
D20*
X143000000Y-94000000D03*
X143000000Y-95000000D03*
X143000000Y-96500000D03*
X143000000Y-97500000D03*
D21*
X147745000Y-100070000D03*
X147745000Y-91430000D03*
D22*
X143565000Y-100070000D03*
X143565000Y-91430000D03*
%TD*%
D23*
%TO.C,D5*%
X144272000Y-106542000D03*
X144272000Y-108342000D03*
%TD*%
D24*
%TO.C,R5*%
X137605000Y-98425000D03*
X139255000Y-98425000D03*
%TD*%
D12*
%TO.C,C1*%
X143000000Y-103225000D03*
X143000000Y-104775000D03*
%TD*%
D25*
%TO.C,D1*%
X141000000Y-99000000D03*
D26*
X141000000Y-100900000D03*
%TD*%
D13*
%TO.C,R9*%
X142748000Y-106617000D03*
X142748000Y-108267000D03*
%TD*%
D27*
%TO.C,U2*%
X130000000Y-95000000D03*
D28*
X135000000Y-95000000D03*
D27*
X140000000Y-95000000D03*
D29*
X138810000Y-100080000D03*
X131190000Y-100080000D03*
D30*
X132490000Y-89920000D03*
X138810000Y-92460000D03*
%TD*%
D10*
%TO.C,R4*%
X137000000Y-101825000D03*
X137000000Y-100175000D03*
%TD*%
D31*
%TO.C,REF\u002A\u002A*%
X135000000Y-83500000D03*
%TD*%
D17*
%TO.C,Z2*%
X133050000Y-102000000D03*
X130950000Y-102000000D03*
%TD*%
D15*
%TO.C,REF\u002A\u002A*%
X123000000Y-83000000D03*
%TD*%
M02*
