%TF.GenerationSoftware,KiCad,Pcbnew,9.0.0*%
%TF.CreationDate,2025-04-28T15:11:58+09:00*%
%TF.ProjectId,1Keyboard,314b6579-626f-4617-9264-2e6b69636164,rev?*%
%TF.SameCoordinates,Original*%
%TF.FileFunction,Copper,L2,Bot*%
%TF.FilePolarity,Positive*%
%FSLAX46Y46*%
G04 Gerber Fmt 4.6, Leading zero omitted, Abs format (unit mm)*
G04 Created by KiCad (PCBNEW 9.0.0) date 2025-04-28 15:11:58*
%MOMM*%
%LPD*%
G01*
G04 APERTURE LIST*
%TA.AperFunction,ComponentPad*%
%ADD10O,1.800000X1.000000*%
%TD*%
%TA.AperFunction,ComponentPad*%
%ADD11O,2.100000X1.000000*%
%TD*%
%TA.AperFunction,ComponentPad*%
%ADD12C,1.508000*%
%TD*%
%TA.AperFunction,ComponentPad*%
%ADD13C,2.250000*%
%TD*%
%TA.AperFunction,ViaPad*%
%ADD14C,0.600000*%
%TD*%
%TA.AperFunction,Conductor*%
%ADD15C,0.600000*%
%TD*%
G04 APERTURE END LIST*
D10*
%TO.P,J1,S1,SHIELD*%
%TO.N,GND*%
X147745000Y-100070000D03*
%TO.P,J1,S2,SHIELD*%
X147745000Y-91430000D03*
D11*
%TO.P,J1,S3,SHIELD*%
X143565000Y-100070000D03*
%TO.P,J1,S4,SHIELD*%
X143565000Y-91430000D03*
%TD*%
D12*
%TO.P,U2,BR1*%
%TO.N,5V*%
X138810000Y-100080000D03*
%TO.P,U2,BR2*%
%TO.N,GND*%
X131190000Y-100080000D03*
D13*
%TO.P,U2,P$1*%
X132490000Y-89920000D03*
%TO.P,U2,P$2*%
%TO.N,Net-(U1-PB2)*%
X138810000Y-92460000D03*
%TD*%
D14*
%TO.N,Net-(U1-PB4)*%
X135128000Y-102870000D03*
X135128000Y-105918000D03*
%TO.N,5V*%
X136398000Y-92710000D03*
X134112000Y-102870000D03*
%TO.N,Net-(U1-PB2)*%
X138938000Y-102362000D03*
%TO.N,Net-(D1-A)*%
X140208000Y-98044000D03*
X141732000Y-93472000D03*
%TD*%
D15*
%TO.N,Net-(U1-PB4)*%
X135128000Y-105918000D02*
X135128000Y-102870000D01*
%TO.N,5V*%
X134112000Y-102870000D02*
X134112000Y-102753215D01*
X137544900Y-93856900D02*
X136398000Y-92710000D01*
X136785215Y-100080000D02*
X138810000Y-100080000D01*
X137544900Y-98814900D02*
X137544900Y-93856900D01*
X134112000Y-102753215D02*
X136785215Y-100080000D01*
X138810000Y-100080000D02*
X137544900Y-98814900D01*
%TO.N,Net-(U1-PB2)*%
X140065000Y-101235000D02*
X140065000Y-99033786D01*
X138599000Y-92671000D02*
X138810000Y-92460000D01*
X138938000Y-102362000D02*
X140065000Y-101235000D01*
X140065000Y-99033786D02*
X138599000Y-97567786D01*
X138599000Y-97567786D02*
X138599000Y-92671000D01*
%TO.N,Net-(D1-A)*%
X141732000Y-93472000D02*
X141732000Y-96520000D01*
X141732000Y-96520000D02*
X140208000Y-98044000D01*
%TD*%
%TA.AperFunction,Conductor*%
%TO.N,GND*%
G36*
X147003736Y-80500725D02*
G01*
X147293796Y-80518270D01*
X147308659Y-80520075D01*
X147590798Y-80571779D01*
X147605335Y-80575362D01*
X147879172Y-80660694D01*
X147893163Y-80665999D01*
X148154743Y-80783726D01*
X148167989Y-80790679D01*
X148413460Y-80939071D01*
X148425776Y-80947572D01*
X148651573Y-81124472D01*
X148662781Y-81134402D01*
X148865596Y-81337217D01*
X148875526Y-81348425D01*
X149052425Y-81574219D01*
X149060927Y-81586536D01*
X149201634Y-81819294D01*
X149209317Y-81832003D01*
X149216276Y-81845262D01*
X149333998Y-82106830D01*
X149339307Y-82120831D01*
X149424636Y-82394663D01*
X149428220Y-82409201D01*
X149479924Y-82691339D01*
X149481729Y-82706204D01*
X149499274Y-82996245D01*
X149499500Y-83003732D01*
X149499500Y-106996248D01*
X149499274Y-107003735D01*
X149481728Y-107293794D01*
X149479923Y-107308659D01*
X149428219Y-107590797D01*
X149424635Y-107605335D01*
X149339306Y-107879166D01*
X149333997Y-107893167D01*
X149216275Y-108154735D01*
X149209316Y-108167994D01*
X149060928Y-108413458D01*
X149052422Y-108425781D01*
X148875526Y-108651573D01*
X148865596Y-108662781D01*
X148662781Y-108865595D01*
X148651573Y-108875525D01*
X148425782Y-109052422D01*
X148413459Y-109060928D01*
X148167995Y-109209316D01*
X148154736Y-109216275D01*
X147893168Y-109333997D01*
X147879167Y-109339306D01*
X147605336Y-109424635D01*
X147590798Y-109428219D01*
X147308659Y-109479923D01*
X147293794Y-109481728D01*
X147003753Y-109499273D01*
X146996266Y-109499499D01*
X123003752Y-109499499D01*
X122996265Y-109499273D01*
X122706205Y-109481727D01*
X122691340Y-109479922D01*
X122409202Y-109428218D01*
X122394664Y-109424634D01*
X122120833Y-109339305D01*
X122106832Y-109333996D01*
X121845264Y-109216274D01*
X121832005Y-109209315D01*
X121586538Y-109060925D01*
X121574220Y-109052422D01*
X121348426Y-108875525D01*
X121337218Y-108865595D01*
X121134404Y-108662780D01*
X121124474Y-108651572D01*
X121038576Y-108541932D01*
X120947573Y-108425775D01*
X120939071Y-108413457D01*
X120790680Y-108167986D01*
X120783722Y-108154728D01*
X120666009Y-107893182D01*
X120660699Y-107879181D01*
X120575363Y-107605326D01*
X120571781Y-107590796D01*
X120520076Y-107308656D01*
X120518272Y-107293793D01*
X120510903Y-107171966D01*
X120500725Y-107003711D01*
X120500500Y-106996237D01*
X120500500Y-106878711D01*
X121149500Y-106878711D01*
X121149500Y-107121288D01*
X121181161Y-107361785D01*
X121243947Y-107596104D01*
X121247771Y-107605335D01*
X121336776Y-107820212D01*
X121458064Y-108030289D01*
X121458066Y-108030292D01*
X121458067Y-108030293D01*
X121605733Y-108222736D01*
X121605739Y-108222743D01*
X121777256Y-108394260D01*
X121777263Y-108394266D01*
X121890321Y-108481018D01*
X121969711Y-108541936D01*
X122179788Y-108663224D01*
X122403900Y-108756054D01*
X122638211Y-108818838D01*
X122818586Y-108842584D01*
X122878711Y-108850500D01*
X122878712Y-108850500D01*
X123121289Y-108850500D01*
X123169388Y-108844167D01*
X123361789Y-108818838D01*
X123596100Y-108756054D01*
X123820212Y-108663224D01*
X124030289Y-108541936D01*
X124222738Y-108394265D01*
X124394265Y-108222738D01*
X124541936Y-108030289D01*
X124663224Y-107820212D01*
X124756054Y-107596100D01*
X124818838Y-107361789D01*
X124850500Y-107121288D01*
X124850500Y-106878712D01*
X124850500Y-106878711D01*
X145149500Y-106878711D01*
X145149500Y-107121288D01*
X145181161Y-107361785D01*
X145243947Y-107596104D01*
X145247771Y-107605335D01*
X145336776Y-107820212D01*
X145458064Y-108030289D01*
X145458066Y-108030292D01*
X145458067Y-108030293D01*
X145605733Y-108222736D01*
X145605739Y-108222743D01*
X145777256Y-108394260D01*
X145777263Y-108394266D01*
X145890321Y-108481018D01*
X145969711Y-108541936D01*
X146179788Y-108663224D01*
X146403900Y-108756054D01*
X146638211Y-108818838D01*
X146818586Y-108842584D01*
X146878711Y-108850500D01*
X146878712Y-108850500D01*
X147121289Y-108850500D01*
X147169388Y-108844167D01*
X147361789Y-108818838D01*
X147596100Y-108756054D01*
X147820212Y-108663224D01*
X148030289Y-108541936D01*
X148222738Y-108394265D01*
X148394265Y-108222738D01*
X148541936Y-108030289D01*
X148663224Y-107820212D01*
X148756054Y-107596100D01*
X148818838Y-107361789D01*
X148850500Y-107121288D01*
X148850500Y-106878712D01*
X148818838Y-106638211D01*
X148756054Y-106403900D01*
X148663224Y-106179788D01*
X148541936Y-105969711D01*
X148394265Y-105777262D01*
X148394260Y-105777256D01*
X148222743Y-105605739D01*
X148222736Y-105605733D01*
X148030293Y-105458067D01*
X148030292Y-105458066D01*
X148030289Y-105458064D01*
X147820212Y-105336776D01*
X147820205Y-105336773D01*
X147596104Y-105243947D01*
X147361785Y-105181161D01*
X147121289Y-105149500D01*
X147121288Y-105149500D01*
X146878712Y-105149500D01*
X146878711Y-105149500D01*
X146638214Y-105181161D01*
X146403895Y-105243947D01*
X146179794Y-105336773D01*
X146179785Y-105336777D01*
X145969706Y-105458067D01*
X145777263Y-105605733D01*
X145777256Y-105605739D01*
X145605739Y-105777256D01*
X145605733Y-105777263D01*
X145458067Y-105969706D01*
X145336777Y-106179785D01*
X145336773Y-106179794D01*
X145243947Y-106403895D01*
X145181161Y-106638214D01*
X145149500Y-106878711D01*
X124850500Y-106878711D01*
X124818838Y-106638211D01*
X124756054Y-106403900D01*
X124663224Y-106179788D01*
X124541936Y-105969711D01*
X124394265Y-105777262D01*
X124394260Y-105777256D01*
X124222743Y-105605739D01*
X124222736Y-105605733D01*
X124030293Y-105458067D01*
X124030292Y-105458066D01*
X124030289Y-105458064D01*
X123820212Y-105336776D01*
X123820205Y-105336773D01*
X123596104Y-105243947D01*
X123361785Y-105181161D01*
X123121289Y-105149500D01*
X123121288Y-105149500D01*
X122878712Y-105149500D01*
X122878711Y-105149500D01*
X122638214Y-105181161D01*
X122403895Y-105243947D01*
X122179794Y-105336773D01*
X122179785Y-105336777D01*
X121969706Y-105458067D01*
X121777263Y-105605733D01*
X121777256Y-105605739D01*
X121605739Y-105777256D01*
X121605733Y-105777263D01*
X121458067Y-105969706D01*
X121336777Y-106179785D01*
X121336773Y-106179794D01*
X121243947Y-106403895D01*
X121181161Y-106638214D01*
X121149500Y-106878711D01*
X120500500Y-106878711D01*
X120500500Y-99981302D01*
X129936000Y-99981302D01*
X129936000Y-100178697D01*
X129966876Y-100373646D01*
X130027873Y-100561373D01*
X130117483Y-100737239D01*
X130143457Y-100772988D01*
X130143457Y-100772989D01*
X130707037Y-100209409D01*
X130724075Y-100272993D01*
X130789901Y-100387007D01*
X130882993Y-100480099D01*
X130997007Y-100545925D01*
X131060590Y-100562962D01*
X130497009Y-101126541D01*
X130497010Y-101126542D01*
X130532755Y-101152512D01*
X130532768Y-101152520D01*
X130708626Y-101242126D01*
X130896353Y-101303123D01*
X131091303Y-101334000D01*
X131288697Y-101334000D01*
X131483646Y-101303123D01*
X131671373Y-101242126D01*
X131847241Y-101152516D01*
X131882988Y-101126543D01*
X131882988Y-101126541D01*
X131319410Y-100562962D01*
X131382993Y-100545925D01*
X131497007Y-100480099D01*
X131590099Y-100387007D01*
X131655925Y-100272993D01*
X131672962Y-100209409D01*
X132236541Y-100772988D01*
X132236543Y-100772988D01*
X132262516Y-100737241D01*
X132352126Y-100561373D01*
X132413123Y-100373646D01*
X132444000Y-100178697D01*
X132444000Y-99981302D01*
X132413123Y-99786353D01*
X132352126Y-99598626D01*
X132262520Y-99422768D01*
X132262512Y-99422755D01*
X132236542Y-99387010D01*
X132236541Y-99387009D01*
X131672962Y-99950589D01*
X131655925Y-99887007D01*
X131590099Y-99772993D01*
X131497007Y-99679901D01*
X131382993Y-99614075D01*
X131319409Y-99597037D01*
X131882989Y-99033457D01*
X131847239Y-99007483D01*
X131671373Y-98917873D01*
X131483646Y-98856876D01*
X131288697Y-98826000D01*
X131091303Y-98826000D01*
X130896353Y-98856876D01*
X130708626Y-98917873D01*
X130532762Y-99007482D01*
X130532760Y-99007483D01*
X130497010Y-99033456D01*
X130497010Y-99033457D01*
X131060591Y-99597037D01*
X130997007Y-99614075D01*
X130882993Y-99679901D01*
X130789901Y-99772993D01*
X130724075Y-99887007D01*
X130707037Y-99950590D01*
X130143457Y-99387010D01*
X130143456Y-99387010D01*
X130117483Y-99422760D01*
X130117482Y-99422762D01*
X130027873Y-99598626D01*
X129966876Y-99786353D01*
X129936000Y-99981302D01*
X120500500Y-99981302D01*
X120500500Y-94913389D01*
X128899500Y-94913389D01*
X128899500Y-95086611D01*
X128926598Y-95257701D01*
X128980127Y-95422445D01*
X129058768Y-95576788D01*
X129160586Y-95716928D01*
X129283072Y-95839414D01*
X129423212Y-95941232D01*
X129577555Y-96019873D01*
X129742299Y-96073402D01*
X129913389Y-96100500D01*
X129913390Y-96100500D01*
X130086610Y-96100500D01*
X130086611Y-96100500D01*
X130257701Y-96073402D01*
X130422445Y-96019873D01*
X130576788Y-95941232D01*
X130716928Y-95839414D01*
X130839414Y-95716928D01*
X130941232Y-95576788D01*
X131019873Y-95422445D01*
X131073402Y-95257701D01*
X131100500Y-95086611D01*
X131100500Y-94913389D01*
X131090919Y-94852900D01*
X132755600Y-94852900D01*
X132755600Y-95147099D01*
X132755601Y-95147116D01*
X132791848Y-95422445D01*
X132794002Y-95438800D01*
X132868526Y-95716928D01*
X132870152Y-95722994D01*
X132982734Y-95994794D01*
X132982742Y-95994810D01*
X133129840Y-96249589D01*
X133129851Y-96249605D01*
X133308948Y-96483009D01*
X133308954Y-96483016D01*
X133516983Y-96691045D01*
X133516990Y-96691051D01*
X133598362Y-96753490D01*
X133750403Y-96870155D01*
X133750410Y-96870159D01*
X134005189Y-97017257D01*
X134005205Y-97017265D01*
X134277005Y-97129847D01*
X134277007Y-97129847D01*
X134277013Y-97129850D01*
X134561200Y-97205998D01*
X134852894Y-97244400D01*
X134852901Y-97244400D01*
X135147099Y-97244400D01*
X135147106Y-97244400D01*
X135438800Y-97205998D01*
X135722987Y-97129850D01*
X135796318Y-97099475D01*
X135994794Y-97017265D01*
X135994797Y-97017263D01*
X135994803Y-97017261D01*
X136249597Y-96870155D01*
X136483011Y-96691050D01*
X136483016Y-96691045D01*
X136532719Y-96641343D01*
X136594042Y-96607858D01*
X136663734Y-96612842D01*
X136719667Y-96654714D01*
X136744084Y-96720178D01*
X136744400Y-96729024D01*
X136744400Y-98893746D01*
X136775161Y-99048389D01*
X136775164Y-99048401D01*
X136800544Y-99109674D01*
X136808013Y-99179143D01*
X136776737Y-99241622D01*
X136716648Y-99277274D01*
X136710175Y-99278743D01*
X136551723Y-99310261D01*
X136551713Y-99310264D01*
X136406042Y-99370602D01*
X136406029Y-99370609D01*
X136274926Y-99458210D01*
X136274922Y-99458213D01*
X134264648Y-101468489D01*
X133601711Y-102131426D01*
X133545960Y-102187177D01*
X133490209Y-102242927D01*
X133402609Y-102374029D01*
X133402602Y-102374042D01*
X133342264Y-102519713D01*
X133342261Y-102519725D01*
X133311500Y-102674368D01*
X133311500Y-102948846D01*
X133342261Y-103103489D01*
X133342264Y-103103501D01*
X133402602Y-103249172D01*
X133402609Y-103249185D01*
X133490210Y-103380288D01*
X133490213Y-103380292D01*
X133601707Y-103491786D01*
X133601711Y-103491789D01*
X133732814Y-103579390D01*
X133732827Y-103579397D01*
X133878498Y-103639735D01*
X133878503Y-103639737D01*
X134032912Y-103670451D01*
X134033153Y-103670499D01*
X134033156Y-103670500D01*
X134033158Y-103670500D01*
X134190843Y-103670500D01*
X134191340Y-103670451D01*
X134191598Y-103670500D01*
X134196934Y-103670500D01*
X134196934Y-103671511D01*
X134259987Y-103683466D01*
X134310699Y-103731529D01*
X134327500Y-103793853D01*
X134327500Y-105996846D01*
X134358261Y-106151489D01*
X134358264Y-106151501D01*
X134418602Y-106297172D01*
X134418609Y-106297185D01*
X134506210Y-106428288D01*
X134506213Y-106428292D01*
X134617707Y-106539786D01*
X134617711Y-106539789D01*
X134748814Y-106627390D01*
X134748827Y-106627397D01*
X134894498Y-106687735D01*
X134894503Y-106687737D01*
X135049153Y-106718499D01*
X135049156Y-106718500D01*
X135049158Y-106718500D01*
X135206844Y-106718500D01*
X135206845Y-106718499D01*
X135361497Y-106687737D01*
X135507179Y-106627394D01*
X135638289Y-106539789D01*
X135749789Y-106428289D01*
X135837394Y-106297179D01*
X135897737Y-106151497D01*
X135928500Y-105996842D01*
X135928500Y-102791158D01*
X135928500Y-102791155D01*
X135928499Y-102791153D01*
X135897738Y-102636510D01*
X135897737Y-102636503D01*
X135880749Y-102595489D01*
X135837397Y-102490827D01*
X135837390Y-102490814D01*
X135761382Y-102377060D01*
X135740504Y-102310382D01*
X135758989Y-102243002D01*
X135776798Y-102220493D01*
X137080474Y-100916819D01*
X137107401Y-100902115D01*
X137133220Y-100885523D01*
X137139420Y-100884631D01*
X137141797Y-100883334D01*
X137168155Y-100880500D01*
X137201029Y-100880500D01*
X137239508Y-100886621D01*
X137452634Y-100956192D01*
X138318106Y-101238709D01*
X138327077Y-101242026D01*
X138328427Y-101242585D01*
X138328439Y-101242591D01*
X138516237Y-101303610D01*
X138523881Y-101304820D01*
X138525806Y-101305142D01*
X138577613Y-101314227D01*
X138640245Y-101345195D01*
X138676191Y-101405109D01*
X138674040Y-101474945D01*
X138643876Y-101524044D01*
X138316213Y-101851707D01*
X138316210Y-101851711D01*
X138228609Y-101982814D01*
X138228602Y-101982827D01*
X138168264Y-102128498D01*
X138168261Y-102128510D01*
X138137500Y-102283153D01*
X138137500Y-102440846D01*
X138168261Y-102595489D01*
X138168264Y-102595501D01*
X138228602Y-102741172D01*
X138228609Y-102741185D01*
X138316210Y-102872288D01*
X138316213Y-102872292D01*
X138427707Y-102983786D01*
X138427711Y-102983789D01*
X138558814Y-103071390D01*
X138558827Y-103071397D01*
X138704498Y-103131735D01*
X138704503Y-103131737D01*
X138859153Y-103162499D01*
X138859156Y-103162500D01*
X138859158Y-103162500D01*
X139016844Y-103162500D01*
X139016845Y-103162499D01*
X139171497Y-103131737D01*
X139317179Y-103071394D01*
X139448289Y-102983789D01*
X140686789Y-101745289D01*
X140774394Y-101614179D01*
X140834738Y-101468497D01*
X140865500Y-101313842D01*
X140865500Y-101156157D01*
X140865500Y-99820000D01*
X142045138Y-99820000D01*
X142848012Y-99820000D01*
X142830795Y-99829940D01*
X142774940Y-99885795D01*
X142735444Y-99954204D01*
X142715000Y-100030504D01*
X142715000Y-100109496D01*
X142735444Y-100185796D01*
X142774940Y-100254205D01*
X142830795Y-100310060D01*
X142848012Y-100320000D01*
X142045138Y-100320000D01*
X142053430Y-100361690D01*
X142053430Y-100361692D01*
X142128807Y-100543671D01*
X142128814Y-100543684D01*
X142238248Y-100707462D01*
X142238251Y-100707466D01*
X142377533Y-100846748D01*
X142377537Y-100846751D01*
X142541315Y-100956185D01*
X142541328Y-100956192D01*
X142723306Y-101031569D01*
X142723318Y-101031572D01*
X142916504Y-101069999D01*
X142916508Y-101070000D01*
X143315000Y-101070000D01*
X143315000Y-100370000D01*
X143815000Y-100370000D01*
X143815000Y-101070000D01*
X144213492Y-101070000D01*
X144213495Y-101069999D01*
X144406681Y-101031572D01*
X144406693Y-101031569D01*
X144588671Y-100956192D01*
X144588684Y-100956185D01*
X144752462Y-100846751D01*
X144752466Y-100846748D01*
X144891748Y-100707466D01*
X144891751Y-100707462D01*
X145001185Y-100543684D01*
X145001192Y-100543671D01*
X145076569Y-100361692D01*
X145076569Y-100361690D01*
X145084862Y-100320000D01*
X144281988Y-100320000D01*
X144299205Y-100310060D01*
X144355060Y-100254205D01*
X144394556Y-100185796D01*
X144415000Y-100109496D01*
X144415000Y-100030504D01*
X144394556Y-99954204D01*
X144355060Y-99885795D01*
X144299205Y-99829940D01*
X144281988Y-99820000D01*
X145084862Y-99820000D01*
X146375138Y-99820000D01*
X147178012Y-99820000D01*
X147160795Y-99829940D01*
X147104940Y-99885795D01*
X147065444Y-99954204D01*
X147045000Y-100030504D01*
X147045000Y-100109496D01*
X147065444Y-100185796D01*
X147104940Y-100254205D01*
X147160795Y-100310060D01*
X147178012Y-100320000D01*
X146375138Y-100320000D01*
X146383430Y-100361690D01*
X146383430Y-100361692D01*
X146458807Y-100543671D01*
X146458814Y-100543684D01*
X146568248Y-100707462D01*
X146568251Y-100707466D01*
X146707533Y-100846748D01*
X146707537Y-100846751D01*
X146871315Y-100956185D01*
X146871328Y-100956192D01*
X147053306Y-101031569D01*
X147053318Y-101031572D01*
X147246504Y-101069999D01*
X147246508Y-101070000D01*
X147495000Y-101070000D01*
X147495000Y-100370000D01*
X147995000Y-100370000D01*
X147995000Y-101070000D01*
X148243492Y-101070000D01*
X148243495Y-101069999D01*
X148436681Y-101031572D01*
X148436693Y-101031569D01*
X148618671Y-100956192D01*
X148618684Y-100956185D01*
X148782462Y-100846751D01*
X148782466Y-100846748D01*
X148921748Y-100707466D01*
X148921751Y-100707462D01*
X149031185Y-100543684D01*
X149031192Y-100543671D01*
X149106569Y-100361692D01*
X149106569Y-100361690D01*
X149114862Y-100320000D01*
X148311988Y-100320000D01*
X148329205Y-100310060D01*
X148385060Y-100254205D01*
X148424556Y-100185796D01*
X148445000Y-100109496D01*
X148445000Y-100030504D01*
X148424556Y-99954204D01*
X148385060Y-99885795D01*
X148329205Y-99829940D01*
X148311988Y-99820000D01*
X149114862Y-99820000D01*
X149106569Y-99778309D01*
X149106569Y-99778307D01*
X149031192Y-99596328D01*
X149031185Y-99596315D01*
X148921751Y-99432537D01*
X148921748Y-99432533D01*
X148782466Y-99293251D01*
X148782462Y-99293248D01*
X148618684Y-99183814D01*
X148618671Y-99183807D01*
X148436693Y-99108430D01*
X148436681Y-99108427D01*
X148243495Y-99070000D01*
X147995000Y-99070000D01*
X147995000Y-99770000D01*
X147495000Y-99770000D01*
X147495000Y-99070000D01*
X147246504Y-99070000D01*
X147053318Y-99108427D01*
X147053306Y-99108430D01*
X146871328Y-99183807D01*
X146871315Y-99183814D01*
X146707537Y-99293248D01*
X146707533Y-99293251D01*
X146568251Y-99432533D01*
X146568248Y-99432537D01*
X146458814Y-99596315D01*
X146458807Y-99596328D01*
X146383430Y-99778307D01*
X146383430Y-99778309D01*
X146375138Y-99820000D01*
X145084862Y-99820000D01*
X145076569Y-99778309D01*
X145076569Y-99778307D01*
X145001192Y-99596328D01*
X145001185Y-99596315D01*
X144891751Y-99432537D01*
X144891748Y-99432533D01*
X144752466Y-99293251D01*
X144752462Y-99293248D01*
X144588684Y-99183814D01*
X144588674Y-99183809D01*
X144579157Y-99179867D01*
X144524754Y-99136026D01*
X144502689Y-99069731D01*
X144519969Y-99002032D01*
X144523648Y-98996597D01*
X144525512Y-98993367D01*
X144525515Y-98993365D01*
X144601281Y-98862135D01*
X144640500Y-98715766D01*
X144640500Y-98564234D01*
X144601281Y-98417865D01*
X144525515Y-98286635D01*
X144418365Y-98179485D01*
X144352750Y-98141602D01*
X144287136Y-98103719D01*
X144213950Y-98084109D01*
X144140766Y-98064500D01*
X143989234Y-98064500D01*
X143842863Y-98103719D01*
X143711635Y-98179485D01*
X143711632Y-98179487D01*
X143604487Y-98286632D01*
X143604485Y-98286635D01*
X143528719Y-98417863D01*
X143489500Y-98564234D01*
X143489500Y-98715765D01*
X143528719Y-98862136D01*
X143560899Y-98917873D01*
X143604485Y-98993365D01*
X143711635Y-99100515D01*
X143753000Y-99124397D01*
X143801216Y-99174964D01*
X143815000Y-99231784D01*
X143815000Y-99770000D01*
X143315000Y-99770000D01*
X143315000Y-99070000D01*
X142916504Y-99070000D01*
X142723318Y-99108427D01*
X142723306Y-99108430D01*
X142541328Y-99183807D01*
X142541315Y-99183814D01*
X142377537Y-99293248D01*
X142377533Y-99293251D01*
X142238251Y-99432533D01*
X142238248Y-99432537D01*
X142128814Y-99596315D01*
X142128807Y-99596328D01*
X142053430Y-99778307D01*
X142053430Y-99778309D01*
X142045138Y-99820000D01*
X140865500Y-99820000D01*
X140865500Y-98954944D01*
X140865500Y-98954941D01*
X140865499Y-98954939D01*
X140834738Y-98800296D01*
X140834737Y-98800289D01*
X140792941Y-98699385D01*
X140790804Y-98679510D01*
X140783819Y-98660781D01*
X140787146Y-98645484D01*
X140785473Y-98629919D01*
X140794421Y-98612041D01*
X140798671Y-98592508D01*
X140815356Y-98570219D01*
X140816748Y-98567439D01*
X140819793Y-98564283D01*
X142353788Y-97030290D01*
X142362494Y-97017261D01*
X142441394Y-96899179D01*
X142455184Y-96865884D01*
X142484061Y-96796170D01*
X142484062Y-96796168D01*
X142501736Y-96753500D01*
X142501739Y-96753490D01*
X142532499Y-96598847D01*
X142532500Y-96598845D01*
X142532500Y-93393155D01*
X142532499Y-93393153D01*
X142516346Y-93311947D01*
X142501737Y-93238503D01*
X142501735Y-93238498D01*
X142441397Y-93092827D01*
X142441390Y-93092814D01*
X142353789Y-92961711D01*
X142353786Y-92961707D01*
X142242292Y-92850213D01*
X142242288Y-92850210D01*
X142111185Y-92762609D01*
X142111172Y-92762602D01*
X141965501Y-92702264D01*
X141965489Y-92702261D01*
X141810845Y-92671500D01*
X141810842Y-92671500D01*
X141653158Y-92671500D01*
X141653155Y-92671500D01*
X141498510Y-92702261D01*
X141498498Y-92702264D01*
X141352827Y-92762602D01*
X141352814Y-92762609D01*
X141221711Y-92850210D01*
X141221707Y-92850213D01*
X141110213Y-92961707D01*
X141110210Y-92961711D01*
X141022609Y-93092814D01*
X141022602Y-93092827D01*
X140962264Y-93238498D01*
X140962261Y-93238510D01*
X140931500Y-93393153D01*
X140931500Y-94075796D01*
X140911815Y-94142835D01*
X140859011Y-94188590D01*
X140789853Y-94198534D01*
X140726297Y-94169509D01*
X140719819Y-94163477D01*
X140716930Y-94160588D01*
X140716928Y-94160586D01*
X140576788Y-94058768D01*
X140422445Y-93980127D01*
X140257701Y-93926598D01*
X140257699Y-93926597D01*
X140257698Y-93926597D01*
X140126271Y-93905781D01*
X140086611Y-93899500D01*
X140068690Y-93899500D01*
X140001651Y-93879815D01*
X139955896Y-93827011D01*
X139945952Y-93757853D01*
X139960918Y-93714171D01*
X140148679Y-93384225D01*
X140156124Y-93372683D01*
X140200252Y-93311947D01*
X140316410Y-93083975D01*
X140395474Y-92840639D01*
X140435500Y-92587930D01*
X140435500Y-92332070D01*
X140395474Y-92079361D01*
X140316410Y-91836025D01*
X140316410Y-91836024D01*
X140248612Y-91702964D01*
X140231846Y-91670060D01*
X140200252Y-91608053D01*
X140067945Y-91425947D01*
X140049867Y-91401064D01*
X140049863Y-91401059D01*
X139868940Y-91220136D01*
X139868935Y-91220132D01*
X139813698Y-91180000D01*
X142045138Y-91180000D01*
X142848012Y-91180000D01*
X142830795Y-91189940D01*
X142774940Y-91245795D01*
X142735444Y-91314204D01*
X142715000Y-91390504D01*
X142715000Y-91469496D01*
X142735444Y-91545796D01*
X142774940Y-91614205D01*
X142830795Y-91670060D01*
X142848012Y-91680000D01*
X142045138Y-91680000D01*
X142053430Y-91721690D01*
X142053430Y-91721692D01*
X142128807Y-91903671D01*
X142128814Y-91903684D01*
X142238248Y-92067462D01*
X142238251Y-92067466D01*
X142377533Y-92206748D01*
X142377537Y-92206751D01*
X142541315Y-92316185D01*
X142541328Y-92316192D01*
X142723306Y-92391569D01*
X142723318Y-92391572D01*
X142916504Y-92429999D01*
X142916508Y-92430000D01*
X143315000Y-92430000D01*
X143315000Y-91730000D01*
X143815000Y-91730000D01*
X143815000Y-92268215D01*
X143795315Y-92335254D01*
X143753002Y-92375601D01*
X143711638Y-92399483D01*
X143711632Y-92399487D01*
X143604487Y-92506632D01*
X143604485Y-92506635D01*
X143528719Y-92637863D01*
X143489500Y-92784234D01*
X143489500Y-92935765D01*
X143528719Y-93082136D01*
X143556264Y-93129845D01*
X143604485Y-93213365D01*
X143711635Y-93320515D01*
X143821997Y-93384233D01*
X143837450Y-93393155D01*
X143842865Y-93396281D01*
X143989234Y-93435500D01*
X143989236Y-93435500D01*
X144140764Y-93435500D01*
X144140766Y-93435500D01*
X144287135Y-93396281D01*
X144418365Y-93320515D01*
X144525515Y-93213365D01*
X144601281Y-93082135D01*
X144640500Y-92935766D01*
X144640500Y-92784234D01*
X144601281Y-92637865D01*
X144525515Y-92506635D01*
X144525513Y-92506633D01*
X144521451Y-92499597D01*
X144523654Y-92498325D01*
X144503041Y-92445022D01*
X144517073Y-92376576D01*
X144565882Y-92326582D01*
X144579163Y-92320129D01*
X144588682Y-92316186D01*
X144588684Y-92316185D01*
X144752462Y-92206751D01*
X144752466Y-92206748D01*
X144891748Y-92067466D01*
X144891751Y-92067462D01*
X145001185Y-91903684D01*
X145001192Y-91903671D01*
X145076569Y-91721692D01*
X145076569Y-91721690D01*
X145084862Y-91680000D01*
X144281988Y-91680000D01*
X144299205Y-91670060D01*
X144355060Y-91614205D01*
X144394556Y-91545796D01*
X144415000Y-91469496D01*
X144415000Y-91390504D01*
X144394556Y-91314204D01*
X144355060Y-91245795D01*
X144299205Y-91189940D01*
X144281988Y-91180000D01*
X145084862Y-91180000D01*
X146375138Y-91180000D01*
X147178012Y-91180000D01*
X147160795Y-91189940D01*
X147104940Y-91245795D01*
X147065444Y-91314204D01*
X147045000Y-91390504D01*
X147045000Y-91469496D01*
X147065444Y-91545796D01*
X147104940Y-91614205D01*
X147160795Y-91670060D01*
X147178012Y-91680000D01*
X146375138Y-91680000D01*
X146383430Y-91721690D01*
X146383430Y-91721692D01*
X146458807Y-91903671D01*
X146458814Y-91903684D01*
X146568248Y-92067462D01*
X146568251Y-92067466D01*
X146707533Y-92206748D01*
X146707537Y-92206751D01*
X146871315Y-92316185D01*
X146871328Y-92316192D01*
X147053306Y-92391569D01*
X147053318Y-92391572D01*
X147246504Y-92429999D01*
X147246508Y-92430000D01*
X147495000Y-92430000D01*
X147495000Y-91730000D01*
X147995000Y-91730000D01*
X147995000Y-92430000D01*
X148243492Y-92430000D01*
X148243495Y-92429999D01*
X148436681Y-92391572D01*
X148436693Y-92391569D01*
X148618671Y-92316192D01*
X148618684Y-92316185D01*
X148782462Y-92206751D01*
X148782466Y-92206748D01*
X148921748Y-92067466D01*
X148921751Y-92067462D01*
X149031185Y-91903684D01*
X149031192Y-91903671D01*
X149106569Y-91721692D01*
X149106569Y-91721690D01*
X149114862Y-91680000D01*
X148311988Y-91680000D01*
X148329205Y-91670060D01*
X148385060Y-91614205D01*
X148424556Y-91545796D01*
X148445000Y-91469496D01*
X148445000Y-91390504D01*
X148424556Y-91314204D01*
X148385060Y-91245795D01*
X148329205Y-91189940D01*
X148311988Y-91180000D01*
X149114862Y-91180000D01*
X149106569Y-91138309D01*
X149106569Y-91138307D01*
X149031192Y-90956328D01*
X149031185Y-90956315D01*
X148921751Y-90792537D01*
X148921748Y-90792533D01*
X148782466Y-90653251D01*
X148782462Y-90653248D01*
X148618684Y-90543814D01*
X148618671Y-90543807D01*
X148436693Y-90468430D01*
X148436681Y-90468427D01*
X148243495Y-90430000D01*
X147995000Y-90430000D01*
X147995000Y-91130000D01*
X147495000Y-91130000D01*
X147495000Y-90430000D01*
X147246504Y-90430000D01*
X147053318Y-90468427D01*
X147053306Y-90468430D01*
X146871328Y-90543807D01*
X146871315Y-90543814D01*
X146707537Y-90653248D01*
X146707533Y-90653251D01*
X146568251Y-90792533D01*
X146568248Y-90792537D01*
X146458814Y-90956315D01*
X146458807Y-90956328D01*
X146383430Y-91138307D01*
X146383430Y-91138309D01*
X146375138Y-91180000D01*
X145084862Y-91180000D01*
X145076569Y-91138309D01*
X145076569Y-91138307D01*
X145001192Y-90956328D01*
X145001185Y-90956315D01*
X144891751Y-90792537D01*
X144891748Y-90792533D01*
X144752466Y-90653251D01*
X144752462Y-90653248D01*
X144588684Y-90543814D01*
X144588671Y-90543807D01*
X144406693Y-90468430D01*
X144406681Y-90468427D01*
X144213495Y-90430000D01*
X143815000Y-90430000D01*
X143815000Y-91130000D01*
X143315000Y-91130000D01*
X143315000Y-90430000D01*
X142916504Y-90430000D01*
X142723318Y-90468427D01*
X142723306Y-90468430D01*
X142541328Y-90543807D01*
X142541315Y-90543814D01*
X142377537Y-90653248D01*
X142377533Y-90653251D01*
X142238251Y-90792533D01*
X142238248Y-90792537D01*
X142128814Y-90956315D01*
X142128807Y-90956328D01*
X142053430Y-91138307D01*
X142053430Y-91138309D01*
X142045138Y-91180000D01*
X139813698Y-91180000D01*
X139661950Y-91069750D01*
X139661949Y-91069749D01*
X139661947Y-91069748D01*
X139588910Y-91032533D01*
X139433975Y-90953589D01*
X139433972Y-90953588D01*
X139190640Y-90874526D01*
X139064284Y-90854513D01*
X138937930Y-90834500D01*
X138682070Y-90834500D01*
X138597833Y-90847842D01*
X138429359Y-90874526D01*
X138186027Y-90953588D01*
X138186024Y-90953589D01*
X137958049Y-91069750D01*
X137751064Y-91220132D01*
X137751059Y-91220136D01*
X137570136Y-91401059D01*
X137570132Y-91401064D01*
X137419750Y-91608049D01*
X137303589Y-91836024D01*
X137303588Y-91836027D01*
X137224526Y-92079358D01*
X137218147Y-92119633D01*
X137188217Y-92182767D01*
X137128905Y-92219697D01*
X137059042Y-92218699D01*
X137007993Y-92187914D01*
X136908292Y-92088213D01*
X136908288Y-92088210D01*
X136777185Y-92000609D01*
X136777172Y-92000602D01*
X136631501Y-91940264D01*
X136631489Y-91940261D01*
X136476845Y-91909500D01*
X136476842Y-91909500D01*
X136319158Y-91909500D01*
X136319155Y-91909500D01*
X136164510Y-91940261D01*
X136164498Y-91940264D01*
X136018827Y-92000602D01*
X136018814Y-92000609D01*
X135887711Y-92088210D01*
X135887707Y-92088213D01*
X135776213Y-92199707D01*
X135776210Y-92199711D01*
X135688609Y-92330814D01*
X135688602Y-92330827D01*
X135628264Y-92476498D01*
X135628261Y-92476510D01*
X135597500Y-92631153D01*
X135597500Y-92674925D01*
X135577815Y-92741964D01*
X135525011Y-92787719D01*
X135455853Y-92797663D01*
X135441422Y-92794704D01*
X135438802Y-92794002D01*
X135147116Y-92755601D01*
X135147111Y-92755600D01*
X135147106Y-92755600D01*
X134852894Y-92755600D01*
X134852888Y-92755600D01*
X134852883Y-92755601D01*
X134561203Y-92794001D01*
X134277005Y-92870152D01*
X134005205Y-92982734D01*
X134005189Y-92982742D01*
X133750410Y-93129840D01*
X133750394Y-93129851D01*
X133516990Y-93308948D01*
X133516983Y-93308954D01*
X133308954Y-93516983D01*
X133308948Y-93516990D01*
X133129851Y-93750394D01*
X133129840Y-93750410D01*
X132982742Y-94005189D01*
X132982734Y-94005205D01*
X132870152Y-94277005D01*
X132794001Y-94561203D01*
X132755601Y-94852883D01*
X132755600Y-94852900D01*
X131090919Y-94852900D01*
X131073402Y-94742299D01*
X131019873Y-94577555D01*
X130941232Y-94423212D01*
X130839414Y-94283072D01*
X130716928Y-94160586D01*
X130576788Y-94058768D01*
X130422445Y-93980127D01*
X130257701Y-93926598D01*
X130257699Y-93926597D01*
X130257698Y-93926597D01*
X130126271Y-93905781D01*
X130086611Y-93899500D01*
X129913389Y-93899500D01*
X129873728Y-93905781D01*
X129742302Y-93926597D01*
X129577552Y-93980128D01*
X129423211Y-94058768D01*
X129343256Y-94116859D01*
X129283072Y-94160586D01*
X129283070Y-94160588D01*
X129283069Y-94160588D01*
X129160588Y-94283069D01*
X129160588Y-94283070D01*
X129160586Y-94283072D01*
X129116859Y-94343256D01*
X129058768Y-94423211D01*
X128980128Y-94577552D01*
X128926597Y-94742302D01*
X128906652Y-94868233D01*
X128899500Y-94913389D01*
X120500500Y-94913389D01*
X120500500Y-89792110D01*
X130865000Y-89792110D01*
X130865000Y-90047889D01*
X130905013Y-90300523D01*
X130984051Y-90543781D01*
X130984052Y-90543784D01*
X131100175Y-90771686D01*
X131177850Y-90878595D01*
X131177850Y-90878596D01*
X131812421Y-90244024D01*
X131825359Y-90275258D01*
X131907437Y-90398097D01*
X132011903Y-90502563D01*
X132134742Y-90584641D01*
X132165974Y-90597577D01*
X131531402Y-91232148D01*
X131638313Y-91309824D01*
X131866215Y-91425947D01*
X131866218Y-91425948D01*
X132109476Y-91504986D01*
X132362111Y-91545000D01*
X132617889Y-91545000D01*
X132870523Y-91504986D01*
X133113781Y-91425948D01*
X133113784Y-91425947D01*
X133341685Y-91309825D01*
X133448595Y-91232148D01*
X133448596Y-91232148D01*
X132814025Y-90597578D01*
X132845258Y-90584641D01*
X132968097Y-90502563D01*
X133072563Y-90398097D01*
X133154641Y-90275258D01*
X133167577Y-90244025D01*
X133802148Y-90878596D01*
X133802148Y-90878595D01*
X133879825Y-90771685D01*
X133995947Y-90543784D01*
X133995948Y-90543781D01*
X134074986Y-90300523D01*
X134115000Y-90047889D01*
X134115000Y-89792110D01*
X134074986Y-89539476D01*
X133995948Y-89296218D01*
X133995947Y-89296215D01*
X133879824Y-89068313D01*
X133802148Y-88961403D01*
X133802148Y-88961402D01*
X133167577Y-89595973D01*
X133154641Y-89564742D01*
X133072563Y-89441903D01*
X132968097Y-89337437D01*
X132845258Y-89255359D01*
X132814024Y-89242421D01*
X133448596Y-88607850D01*
X133341686Y-88530175D01*
X133113784Y-88414052D01*
X133113781Y-88414051D01*
X132870523Y-88335013D01*
X132617889Y-88295000D01*
X132362111Y-88295000D01*
X132109476Y-88335013D01*
X131866218Y-88414051D01*
X131866215Y-88414052D01*
X131638310Y-88530177D01*
X131531403Y-88607849D01*
X131531402Y-88607850D01*
X132165974Y-89242421D01*
X132134742Y-89255359D01*
X132011903Y-89337437D01*
X131907437Y-89441903D01*
X131825359Y-89564742D01*
X131812421Y-89595974D01*
X131177850Y-88961402D01*
X131177849Y-88961403D01*
X131100177Y-89068310D01*
X130984052Y-89296215D01*
X130984051Y-89296218D01*
X130905013Y-89539476D01*
X130865000Y-89792110D01*
X120500500Y-89792110D01*
X120500500Y-83003749D01*
X120500726Y-82996262D01*
X120507837Y-82878711D01*
X121149500Y-82878711D01*
X121149500Y-83121288D01*
X121181161Y-83361785D01*
X121243947Y-83596104D01*
X121259981Y-83634813D01*
X121336776Y-83820212D01*
X121458064Y-84030289D01*
X121458066Y-84030292D01*
X121458067Y-84030293D01*
X121605733Y-84222736D01*
X121605739Y-84222743D01*
X121777256Y-84394260D01*
X121777263Y-84394266D01*
X121810907Y-84420082D01*
X121969711Y-84541936D01*
X122179788Y-84663224D01*
X122403900Y-84756054D01*
X122638211Y-84818838D01*
X122818586Y-84842584D01*
X122878711Y-84850500D01*
X122878712Y-84850500D01*
X123121289Y-84850500D01*
X123169388Y-84844167D01*
X123361789Y-84818838D01*
X123596100Y-84756054D01*
X123820212Y-84663224D01*
X124030289Y-84541936D01*
X124222738Y-84394265D01*
X124394265Y-84222738D01*
X124541936Y-84030289D01*
X124663224Y-83820212D01*
X124756054Y-83596100D01*
X124817928Y-83365186D01*
X132599500Y-83365186D01*
X132599500Y-83634813D01*
X132629686Y-83902719D01*
X132629688Y-83902731D01*
X132689684Y-84165594D01*
X132689687Y-84165602D01*
X132778734Y-84420082D01*
X132895714Y-84662994D01*
X132895716Y-84662997D01*
X133039162Y-84891289D01*
X133207266Y-85102085D01*
X133397915Y-85292734D01*
X133608711Y-85460838D01*
X133837003Y-85604284D01*
X134079921Y-85721267D01*
X134271049Y-85788145D01*
X134334397Y-85810312D01*
X134334405Y-85810315D01*
X134334408Y-85810315D01*
X134334409Y-85810316D01*
X134597268Y-85870312D01*
X134865187Y-85900499D01*
X134865188Y-85900500D01*
X134865191Y-85900500D01*
X135134812Y-85900500D01*
X135134812Y-85900499D01*
X135402732Y-85870312D01*
X135665591Y-85810316D01*
X135920079Y-85721267D01*
X136162997Y-85604284D01*
X136391289Y-85460838D01*
X136602085Y-85292734D01*
X136792734Y-85102085D01*
X136960838Y-84891289D01*
X137104284Y-84662997D01*
X137221267Y-84420079D01*
X137310316Y-84165591D01*
X137370312Y-83902732D01*
X137400500Y-83634809D01*
X137400500Y-83365191D01*
X137370312Y-83097268D01*
X137320428Y-82878711D01*
X145149500Y-82878711D01*
X145149500Y-83121288D01*
X145181161Y-83361785D01*
X145243947Y-83596104D01*
X145259981Y-83634813D01*
X145336776Y-83820212D01*
X145458064Y-84030289D01*
X145458066Y-84030292D01*
X145458067Y-84030293D01*
X145605733Y-84222736D01*
X145605739Y-84222743D01*
X145777256Y-84394260D01*
X145777263Y-84394266D01*
X145810907Y-84420082D01*
X145969711Y-84541936D01*
X146179788Y-84663224D01*
X146403900Y-84756054D01*
X146638211Y-84818838D01*
X146818586Y-84842584D01*
X146878711Y-84850500D01*
X146878712Y-84850500D01*
X147121289Y-84850500D01*
X147169388Y-84844167D01*
X147361789Y-84818838D01*
X147596100Y-84756054D01*
X147820212Y-84663224D01*
X148030289Y-84541936D01*
X148222738Y-84394265D01*
X148394265Y-84222738D01*
X148541936Y-84030289D01*
X148663224Y-83820212D01*
X148756054Y-83596100D01*
X148818838Y-83361789D01*
X148850500Y-83121288D01*
X148850500Y-82878712D01*
X148818838Y-82638211D01*
X148756054Y-82403900D01*
X148663224Y-82179788D01*
X148541936Y-81969711D01*
X148394265Y-81777262D01*
X148394260Y-81777256D01*
X148222743Y-81605739D01*
X148222736Y-81605733D01*
X148030293Y-81458067D01*
X148030292Y-81458066D01*
X148030289Y-81458064D01*
X147858661Y-81358974D01*
X147820214Y-81336777D01*
X147820205Y-81336773D01*
X147596104Y-81243947D01*
X147361785Y-81181161D01*
X147121289Y-81149500D01*
X147121288Y-81149500D01*
X146878712Y-81149500D01*
X146878711Y-81149500D01*
X146638214Y-81181161D01*
X146403895Y-81243947D01*
X146179794Y-81336773D01*
X146179785Y-81336777D01*
X145969706Y-81458067D01*
X145777263Y-81605733D01*
X145777256Y-81605739D01*
X145605739Y-81777256D01*
X145605733Y-81777263D01*
X145458067Y-81969706D01*
X145336777Y-82179785D01*
X145336773Y-82179794D01*
X145243947Y-82403895D01*
X145181161Y-82638214D01*
X145149500Y-82878711D01*
X137320428Y-82878711D01*
X137310316Y-82834409D01*
X137221267Y-82579921D01*
X137104284Y-82337003D01*
X136960838Y-82108711D01*
X136792734Y-81897915D01*
X136602085Y-81707266D01*
X136391289Y-81539162D01*
X136162997Y-81395716D01*
X136162994Y-81395714D01*
X135920082Y-81278734D01*
X135665602Y-81189687D01*
X135665594Y-81189684D01*
X135468446Y-81144687D01*
X135402732Y-81129688D01*
X135402728Y-81129687D01*
X135402719Y-81129686D01*
X135134813Y-81099500D01*
X135134809Y-81099500D01*
X134865191Y-81099500D01*
X134865186Y-81099500D01*
X134597280Y-81129686D01*
X134597268Y-81129688D01*
X134334405Y-81189684D01*
X134334397Y-81189687D01*
X134079917Y-81278734D01*
X133837005Y-81395714D01*
X133608712Y-81539161D01*
X133397915Y-81707265D01*
X133207265Y-81897915D01*
X133039161Y-82108712D01*
X132895714Y-82337005D01*
X132778734Y-82579917D01*
X132689687Y-82834397D01*
X132689684Y-82834405D01*
X132629688Y-83097268D01*
X132629686Y-83097280D01*
X132599500Y-83365186D01*
X124817928Y-83365186D01*
X124818838Y-83361789D01*
X124850500Y-83121288D01*
X124850500Y-82878712D01*
X124818838Y-82638211D01*
X124756054Y-82403900D01*
X124663224Y-82179788D01*
X124541936Y-81969711D01*
X124394265Y-81777262D01*
X124394260Y-81777256D01*
X124222743Y-81605739D01*
X124222736Y-81605733D01*
X124030293Y-81458067D01*
X124030292Y-81458066D01*
X124030289Y-81458064D01*
X123858661Y-81358974D01*
X123820214Y-81336777D01*
X123820205Y-81336773D01*
X123596104Y-81243947D01*
X123361785Y-81181161D01*
X123121289Y-81149500D01*
X123121288Y-81149500D01*
X122878712Y-81149500D01*
X122878711Y-81149500D01*
X122638214Y-81181161D01*
X122403895Y-81243947D01*
X122179794Y-81336773D01*
X122179785Y-81336777D01*
X121969706Y-81458067D01*
X121777263Y-81605733D01*
X121777256Y-81605739D01*
X121605739Y-81777256D01*
X121605733Y-81777263D01*
X121458067Y-81969706D01*
X121336777Y-82179785D01*
X121336773Y-82179794D01*
X121243947Y-82403895D01*
X121181161Y-82638214D01*
X121149500Y-82878711D01*
X120507837Y-82878711D01*
X120508535Y-82867166D01*
X120518271Y-82706205D01*
X120520076Y-82691340D01*
X120529813Y-82638211D01*
X120571780Y-82409197D01*
X120575364Y-82394663D01*
X120652096Y-82148422D01*
X120660696Y-82120822D01*
X120665998Y-82106841D01*
X120783731Y-81845249D01*
X120790676Y-81832016D01*
X120939080Y-81586526D01*
X120947567Y-81574230D01*
X121124481Y-81348417D01*
X121134396Y-81337226D01*
X121337226Y-81134395D01*
X121348417Y-81124480D01*
X121574231Y-80947567D01*
X121586527Y-80939080D01*
X121832005Y-80790682D01*
X121845264Y-80783724D01*
X121845266Y-80783723D01*
X122106842Y-80665998D01*
X122120823Y-80660696D01*
X122394669Y-80575362D01*
X122409198Y-80571780D01*
X122691344Y-80520075D01*
X122706201Y-80518271D01*
X122996288Y-80500724D01*
X123003761Y-80500499D01*
X123065893Y-80500499D01*
X146934108Y-80500499D01*
X146996249Y-80500499D01*
X147003736Y-80500725D01*
G37*
%TD.AperFunction*%
%TD*%
%TA.AperFunction,Conductor*%
%TO.N,5V*%
G36*
X138659312Y-99345264D02*
G01*
X138665137Y-99352065D01*
X138665487Y-99353399D01*
X138810539Y-100077703D01*
X138810539Y-100082297D01*
X138665487Y-100806600D01*
X138660503Y-100814040D01*
X138651718Y-100815775D01*
X138650384Y-100815425D01*
X137324557Y-100382633D01*
X137317756Y-100376808D01*
X137316488Y-100371511D01*
X137316488Y-99788488D01*
X137319915Y-99780215D01*
X137324557Y-99777366D01*
X138650384Y-99344574D01*
X138659312Y-99345264D01*
G37*
%TD.AperFunction*%
%TD*%
%TA.AperFunction,Conductor*%
%TO.N,5V*%
G36*
X137973627Y-98815639D02*
G01*
X138660905Y-99164641D01*
X139217158Y-99447109D01*
X139222983Y-99453910D01*
X139222293Y-99462838D01*
X139221598Y-99464029D01*
X138812006Y-100078757D01*
X138808757Y-100082006D01*
X138194029Y-100491598D01*
X138185244Y-100493333D01*
X138177804Y-100488349D01*
X138177109Y-100487158D01*
X137545639Y-99243627D01*
X137544949Y-99234699D01*
X137547796Y-99230059D01*
X137960058Y-98817797D01*
X137968330Y-98814371D01*
X137973627Y-98815639D01*
G37*
%TD.AperFunction*%
%TD*%
%TA.AperFunction,Conductor*%
%TO.N,Net-(U1-PB2)*%
G36*
X138815120Y-92462220D02*
G01*
X139745807Y-93047508D01*
X139750986Y-93054813D01*
X139749747Y-93063199D01*
X138902365Y-94552271D01*
X138895295Y-94557766D01*
X138892196Y-94558184D01*
X138307567Y-94558184D01*
X138299294Y-94554757D01*
X138296413Y-94550018D01*
X137773876Y-92900745D01*
X137774644Y-92891823D01*
X137780543Y-92886405D01*
X138804412Y-92461319D01*
X138813364Y-92461313D01*
X138815120Y-92462220D01*
G37*
%TD.AperFunction*%
%TD*%
M02*
